<svg xmlns="http://www.w3.org/2000/svg" class="mr-homepage-feature-icon mr-homepage-feature-icon-report" viewBox="0 101.8 600 396.4">
      <g class="mr-homepage-feature-icon-report-pie">
            <path fill="#CAE8F4" d="M536.7,298c0,70.3-56.9,127.2-127.2,127.2c-34.9,0-66.6-14-89.4-36.8v-90.4h89.4v-127&#xA;                  C479.8,171.1,536.7,228,536.7,298"/>
            <path fill="#5598B5" d="M391.8,153.2v127.2h-71.7v-105C340.7,161.4,365.3,153.2,391.8,153.2"/>
            <path fill="#386F94" d="M600,233.5l-9.3,63.3l-22-22l-81.4,81.4c-2.7,2.7-7.2,2.7-9.9,0l-52.6-52.6L320.1,408v-19.7l99.7-99.5&#xA;                  c2.7-2.7,7.2-2.7,9.9,0l52.6,52.6l76.6-76.4l-22-22L600,233.5L600,233.5z"/>
            <path fill="#5598B5" d="M333.5,300.1v101.7c-4.7-3.5-9.3-7.4-13.3-11.5v-90.4h13.3V300.1z"/>
            <path fill="#386F94" d="M333.5,374.9L277.4,431c-2.7,2.7-2.7,7.2,0,9.9c1.4,1.4,3.1,2,4.9,2s3.5-0.6,4.9-2l46-46v-19.9H333.5&#xA;                  L333.5,374.9z M333.5,167.4v113h-13.3v-105C324.5,172.5,329,169.8,333.5,167.4"/>
      </g>
      <path fill="#F4F4F4" d="M302.7,498.2H17.5c-9.7,0-17.5-7.8-17.5-17.5V119.3c0-9.6,7.8-17.5,17.5-17.5h285.2&#xA;            c9.7,0,17.5,7.8,17.5,17.5v361.6C320.1,490.4,312.3,498.2,302.7,498.2"/>
      <path fill="#5598B5" d="M86.1,197.8H31.6c-1.6,0-2.9-1.2-2.9-2.9v-54.2c0-1.6,1.2-2.9,2.9-2.9h54.2c1.6,0,2.9,1.2,2.9,2.9v54.2&#xA;            C88.8,196.5,87.5,197.8,86.1,197.8 M34.5,192.2h48.7v-48.7H34.5C34.5,143.5,34.5,192.2,34.5,192.2z"/>
      <path class="mr-homepage-feature-icon-report-checkmark1" fill="#386F94" d="M58.8,178.5c-0.6,0-1.4-0.2-2-0.8l-16.2-16.2c-1-1-1-2.9,0-3.9c1-1,2.9-1,3.9,0l14.2,14.2&#xA;            l45.4-45.4c1-1,2.9-1,3.9,0c1,1,1,2.9,0,3.9l-47.3,47.3C60.2,178,59.4,178.5,58.8,178.5"/>
      <path fill="#5598B5" d="M86.1,295H31.6c-1.6,0-2.9-1.2-2.9-2.9v-54.3c0-1.6,1.2-2.9,2.9-2.9h54.2c1.6,0,2.9,1.2,2.9,2.9v54.2&#xA;            C88.8,293.7,87.5,295,86.1,295 M34.5,289.4h48.7v-48.7H34.5L34.5,289.4L34.5,289.4z"/>
      <path class="mr-homepage-feature-icon-report-checkmark2" fill="#386F94" d="M58.8,275.7c-0.8,0-1.4-0.2-2-0.8l-16.2-16.2c-1-1-1-2.9,0-3.9c1-1,2.9-1,3.9,0l14.2,14.2&#xA;            l45.4-45.4c1-1,2.9-1,3.9,0c1,1,1,2.9,0,3.9l-47.3,47.3C60.2,275.2,59.4,275.7,58.8,275.7"/>
      <path fill="#5598B5" d="M86.1,392.2H31.6c-1.6,0-2.9-1.2-2.9-2.9V335c0-1.6,1.2-2.9,2.9-2.9h54.2c1.6,0,2.9,1.2,2.9,2.9v54.5&#xA;            C88.8,390.9,87.5,392.2,86.1,392.2 M34.5,386.6h48.7v-48.7H34.5C34.5,337.9,34.5,386.6,34.5,386.6z"/>
      <path class="mr-homepage-feature-icon-report-checkmark3" fill="#386F94" d="M58.8,372.8c-0.6,0-1.4-0.2-2-0.8l-16.2-16.2c-1-1-1-2.9,0-3.9c1-1,2.9-1,3.9,0L58.6,366&#xA;            l45.4-45.4c1-1,2.9-1,3.9,0c1,1,1,2.9,0,3.9l-47.3,47.3C60.2,372.4,59.4,372.8,58.8,372.8"/>
      <path fill="#D7D6D6" d="M292.4,146.2h-164c-1.6,0-2.9-1.2-2.9-2.9s1.2-2.9,2.9-2.9h164c1.6,0,2.9,1.2,2.9,2.9&#xA;            C295.3,145,294,146.2,292.4,146.2 M292.4,162h-164c-1.6,0-2.9-1.2-2.9-2.9s1.2-2.9,2.9-2.9h164c1.6,0,2.9,1.2,2.9,2.9&#xA;            S294,162,292.4,162 M292.4,177.8h-164c-1.6,0-2.9-1.2-2.9-2.9s1.2-2.9,2.9-2.9h164c1.6,0,2.9,1.2,2.9,2.9&#xA;            C295.3,176.6,294,177.8,292.4,177.8 M210.4,193.5h-82c-1.6,0-2.9-1.2-2.9-2.9c0-1.6,1.2-2.9,2.9-2.9h82c1.6,0,2.9,1.2,2.9,2.9&#xA;            C213.3,192.2,212.1,193.5,210.4,193.5 M292.4,240.7h-164c-1.6,0-2.9-1.2-2.9-2.9c0-1.6,1.2-2.9,2.9-2.9h164c1.6,0,2.9,1.2,2.9,2.9&#xA;            C295.3,239.5,294,240.7,292.4,240.7 M292.4,256.5h-164c-1.6,0-2.9-1.2-2.9-2.9c0-1.6,1.2-2.9,2.9-2.9h164c1.6,0,2.9,1.2,2.9,2.9&#xA;            C295.3,255.3,294,256.5,292.4,256.5 M292.4,272.4h-164c-1.6,0-2.9-1.2-2.9-2.9s1.2-2.9,2.9-2.9h164c1.6,0,2.9,1.2,2.9,2.9&#xA;            C295.3,270.9,294,272.4,292.4,272.4 M210.4,288h-82c-1.6,0-2.9-1.2-2.9-2.9c0-1.6,1.2-2.9,2.9-2.9h82c1.6,0,2.9,1.2,2.9,2.9&#xA;            C213.3,286.7,212.1,288,210.4,288 M292.4,335.2h-164c-1.6,0-2.9-1.2-2.9-2.9c0-1.6,1.2-2.9,2.9-2.9h164c1.6,0,2.9,1.2,2.9,2.9&#xA;            C295.3,334,294,335.2,292.4,335.2 M292.4,351.1h-164c-1.6,0-2.9-1.2-2.9-2.9c0-1.6,1.2-2.9,2.9-2.9h164c1.6,0,2.9,1.2,2.9,2.9&#xA;            C295.3,349.6,294,351.1,292.4,351.1 M292.4,366.7h-164c-1.6,0-2.9-1.2-2.9-2.9s1.2-2.9,2.9-2.9h164c1.6,0,2.9,1.2,2.9,2.9&#xA;            C295.3,365.5,294,366.7,292.4,366.7 M210.4,382.5h-82c-1.6,0-2.9-1.2-2.9-2.9s1.2-2.9,2.9-2.9h82c1.6,0,2.9,1.2,2.9,2.9&#xA;            C213.3,381.3,212.1,382.5,210.4,382.5"/>
</svg>