<?xml version="1.0" encoding="utf-8"?>
<!-- Generator: Adobe Illustrator 19.0.0, SVG Export Plug-In . SVG Version: 6.00 Build 0)  -->
<svg version="1.1" xmlns="http://www.w3.org/2000/svg" xmlns:xlink="http://www.w3.org/1999/xlink" x="0px" y="0px"
	 viewBox="0 0 960 560" style="enable-background:new 0 0 960 560;" xml:space="preserve">
<style type="text/css">
	.st0{fill:#004F7A;}
	.st1{fill:#002B44;}
	.st2{fill:#00D5D5;}
	.st3{fill:#05203E;}
	.st4{fill:#FED5AF;}
</style>
<g id="Layer_1">
	<path id="XMLID_68_" class="st0" d="M455.5,386.8c-51.4-13.5-95-62.4-102.9-116.4c-11.2-76.1,36-146.7,110.2-164.6
		c84.7-20.5,168.6,37.5,178.7,124.2c1.4,11.6-0.1,23.6-0.2,35.4c-1.1-0.8-2.3-1.5-3.2-2.4c-30.3-30.2-60.5-60.5-90.8-90.8
		c-2.1-2.1-4.4-4-6.6-6c-1.2-1.4-2.4-2.8-3.6-4.3c-12.9-16.6-34.7-23.5-55-17.5c-19.5,5.8-33.7,23.1-35.7,43.5
		c-2.2,23.3,8.5,39.7,27.7,51.4c2.3,1.8,4.6,3.5,6.9,5.3c-5.9,1.8-12,3-17.6,5.4c-35,14.9-52,44.4-63.2,78.5
		c-0.2,0.5,0.7,1.3,1.1,1.9c16,16.2,32,32.4,47.9,48.7C451.2,381.5,453.6,384.3,455.5,386.8z"/>
	<path id="XMLID_67_" class="st1" d="M540.6,166.2c2.2,2,4.5,3.9,6.6,6c30.3,30.3,60.5,60.5,90.8,90.8c0.9,0.9,2.1,1.6,3.2,2.4
		c-2.3,27.5-13.3,51.4-30.1,72.8c-36.4,46.6-102.8,67.4-155.6,48.6c-2-2.3-6.2-6.7-6.8-7.4c-15.9-16.3-31.5-32.6-47.5-48.9
		c64.1,0,128.2,0,194.9,0c-7.3-15-12.7-28.6-20.2-40.8c-15.9-26-38.8-42.3-69.8-45.6c7.3-3.4,15.3-5.7,21.6-10.4
		C548.9,217.8,553.1,194,540.6,166.2z"/>
	<path id="XMLID_57_" class="st2" d="M506,244.1c31,3.3,53.9,19.7,69.8,45.6c7.5,12.3,12.9,25.8,20.2,40.8c-66.7,0-130.8,0-194.9,0
		c-0.4-0.6-1.2-1.4-1.1-1.9c11.2-34.1,28.2-63.6,63.2-78.5c5.6-2.4,11.7-3.6,17.6-5.4c2.2-0.2,4.5-0.4,6.7-0.6
		C493.7,244.1,499.9,244.1,506,244.1z"/>
	<path id="XMLID_55_" class="st3" d="M474,239.4c4.5,1.6,9,3.1,13.5,4.7c-2.2,0.2-4.5,0.4-6.7,0.6
		C478.6,242.9,476.3,241.2,474,239.4z"/>
</g>
<g id="Layer_2">
	<ellipse id="XMLID_1_" class="st4" cx="495.9" cy="193.6" rx="52.6" ry="51.9"/>
</g>
</svg>
