<?xml version="1.0" encoding="utf-8"?>
<!-- Generator: Adobe Illustrator 23.0.0, SVG Export Plug-In . SVG Version: 6.00 Build 0)  -->
<svg version="1.1" id="Layer_1" xmlns="http://www.w3.org/2000/svg" xmlns:xlink="http://www.w3.org/1999/xlink" x="0px" y="0px"
	 viewBox="0 0 1239.2 550.6" style="enable-background:new 0 0 1239.2 550.6;" xml:space="preserve">
<style type="text/css">
	.st0{fill:url(#SVGID_1_);}
	.st1{fill:url(#SVGID_2_);}
	.st2{fill:url(#SVGID_3_);}
	.st3{fill:#FFED49;}
	.st4{opacity:0.9;fill:url(#SVGID_4_);enable-background:new    ;}
	.st5{opacity:0.9;fill:#FFED49;enable-background:new    ;}
</style>
<title>on top of browser</title>
<g>
	<g id="Items">
		
			<linearGradient id="SVGID_1_" gradientUnits="userSpaceOnUse" x1="-377.0091" y1="-498.8705" x2="-199.9869" y2="-498.8705" gradientTransform="matrix(0.7329 -0.6803 -0.6803 -0.7329 7.2527 -474.9039)">
			<stop  offset="0" style="stop-color:#1AFFCF;stop-opacity:0.74"/>
			<stop  offset="1" style="stop-color:#3688DF"/>
		</linearGradient>
		<polygon class="st0" points="94,44.8 61.2,137.4 73.6,149.3 177.7,128 209.1,36.5 196.8,24.6 		"/>
		
			<linearGradient id="SVGID_2_" gradientUnits="userSpaceOnUse" x1="-377.0091" y1="-490.2642" x2="-200.9161" y2="-490.2642" gradientTransform="matrix(0.7329 -0.6803 -0.6803 -0.7329 7.2527 -474.9039)">
			<stop  offset="0" style="stop-color:#1AFFCF;stop-opacity:0.74"/>
			<stop  offset="1" style="stop-color:#3688DF"/>
		</linearGradient>
		<polygon class="st1" points="61.2,137.4 92.7,45.9 196.8,24.6 165.3,116.1 		"/>
		
			<linearGradient id="SVGID_3_" gradientUnits="userSpaceOnUse" x1="-6289.979" y1="6839.9473" x2="-6289.979" y2="6839.0571" gradientTransform="matrix(25.93 -58.51 74.97 33.23 -349574.1875 -595010.9375)">
			<stop  offset="0" style="stop-color:#FFEF4A"/>
			<stop  offset="0.86" style="stop-color:#F49918"/>
			<stop  offset="1" style="stop-color:#F38B10"/>
		</linearGradient>
		<polygon class="st2" points="78.3,257.7 36.4,239.1 37.9,271.9 12.6,292.8 54.6,311.4 79.9,290.5 		"/>
		<polygon class="st3" points="36.4,239.1 11.1,260 12.6,292.8 37.9,271.9 		"/>
		
			<linearGradient id="SVGID_4_" gradientUnits="userSpaceOnUse" x1="-6270.4194" y1="6818.9824" x2="-6270.4194" y2="6816.9023" gradientTransform="matrix(54.58 -33.42 42.82 69.93 50469.6328 -685876.3125)">
			<stop  offset="0" style="stop-color:#FFEF4A"/>
			<stop  offset="0.86" style="stop-color:#F49918"/>
			<stop  offset="1" style="stop-color:#F38B10"/>
		</linearGradient>
		<polygon class="st4" points="195.5,362.6 154.8,427.8 78.3,434.4 134.3,526 210.9,519.4 251.6,454.2 		"/>
		<polygon class="st5" points="195.5,362.6 118.9,369.2 78.3,434.4 154.8,427.8 		"/>
	</g>
</g>
</svg>
