<?xml version="1.0" encoding="utf-8"?>
<!-- Generator: Adobe Illustrator 19.0.0, SVG Export Plug-In . SVG Version: 6.00 Build 0)  -->
<svg version="1.1" xmlns="http://www.w3.org/2000/svg" xmlns:xlink="http://www.w3.org/1999/xlink" x="0px" y="0px"
	 viewBox="0 0 1280 800" style="enable-background:new 0 0 1280 800;" xml:space="preserve">
<style type="text/css">
	.st0{display:none;}
	.st1{display:inline;stroke:#000000;stroke-miterlimit:10;}
	.st2{display:inline;}
	.st3{display:inline;fill:#020404;}
	.st4{display:inline;fill:#08110E;}
	.st5{display:inline;fill:#070202;}
	.st6{display:inline;fill:#86848E;}
	.st7{display:inline;fill:#FEFEFE;stroke:#000000;stroke-miterlimit:10;}
	.st8{display:inline;fill:#44B78B;}
	.st9{display:inline;fill:#FEFEFE;}
	.st10{display:inline;fill:#080505;}
	.st11{display:inline;fill:#D42C30;}
	.st12{display:inline;fill:#100201;}
	.st13{display:inline;fill:#1B4C40;}
	.st14{display:inline;fill:#010404;}
	.st15{display:inline;fill:#010504;}
	.st16{display:inline;fill:#991C11;}
	.st17{display:inline;fill:#FDFDFD;}
	.st18{display:inline;fill:#FBFBFB;}
	.st19{display:inline;fill:#E9E9E9;}
	.st20{display:inline;fill:#EDEDED;}
	.st21{display:inline;fill:#EAEAEA;}
	.st22{display:inline;fill:#0C0C0C;}
	.st23{display:inline;fill:#000202;}
	.st24{display:inline;fill:#C1F0DD;}
	.st25{display:inline;fill:#FC5155;}
	.st26{display:inline;fill:#D42C30;stroke:#D42C30;stroke-miterlimit:10;}
	.st27{display:inline;fill:none;}
	.st28{display:inline;fill:#333333;}
	.st29{fill:#020404;}
	.st30{fill:#08110E;}
	.st31{fill:#070202;}
	.st32{fill:#86848E;stroke:#000000;stroke-width:0.5;stroke-miterlimit:10;}
	.st33{fill:#FEFEFE;stroke:#000000;stroke-miterlimit:10;}
	.st34{fill:#44B78B;stroke:#000000;stroke-miterlimit:10;}
	.st35{fill:#FEFEFE;}
	.st36{fill:#44B78B;}
	.st37{fill:#080505;}
	.st38{fill:#D42C30;}
	.st39{fill:#100201;}
	.st40{fill:#1B4C40;}
	.st41{fill:#010404;}
	.st42{fill:#010504;}
	.st43{fill:#991C11;}
	.st44{fill:#FDFDFD;}
	.st45{fill:#FBFBFB;}
	.st46{fill:#E9E9E9;}
	.st47{fill:#EDEDED;}
	.st48{fill:#EAEAEA;}
	.st49{fill:#0C0C0C;}
	.st50{fill:#000202;}
	.st51{fill:#C1F0DD;}
	.st52{fill:#FC5155;}
	.st53{fill:#D42C30;stroke:#D42C30;stroke-miterlimit:10;}
	.st54{fill:none;}
	.st55{stroke:#000000;stroke-miterlimit:10;}
	.st56{fill:#333333;}
</style>
<g id="Layer_1" class="st0">
	<path id="XMLID_7_" class="st1" d="M640.6,160.4c6.9-4,13.9-7.8,20.9-11.7c2.4-1.3,2.5-1.3,2.5,1.8c0,7.9,0,15.7,0,23.6
		c0,4.3,0,8.7,0,13c0,3,0.8,3.4,3.4,2c5.2-2.9,10.2-6,15.4-8.9c1.2-0.7,22.4-13.3,23.9-14c1.1-0.5,2-1.6,3.4-1.6
		c1.2-0.4,16-9.3,16.1-8.4c-0.5,2.1-16.9,12.7-18.5,13.7c-13.4,7.9-26.8,15.9-40.3,23.6c-4.9,2.8-6.5,1.9-6.6-4
		c-0.2-10.4,0-20.9-0.1-31.3c0-4.6-0.2-4.7-4.1-2.5c-20.4,11.5-41,22.6-61.4,34.3c-8.7,5-9.7,4.3-9.7-5.8c0-4.8,0.1-9.6,0-14.4
		c-0.1-4.4-0.7-4.7-4.3-2.4c-8.4,5.4-16.8,10.7-25.1,16.1c-12.1,7.9-24.3,15.6-36.4,23.4c-3.9,2.5-5.3,5.6-4.4,11.2
		c1.9,11.7,2.2,23.6,0.2,35.2c-1.3,7.7,0.1,9.4,5,9.4c23.8-0.1,47.5-0.1,71.3-0.1c51.2,0,102.4-0.1,153.6,0.1c6.3,0,10.3-2.4,15-7.8
		c8.5-9.9,17.9-18.9,28.3-26.7c5.2-3.9,8.2-7.1,8-12.8c-0.3-6.2-0.1-12.5-0.1-18.8c0-1.8,0.2-3.6-0.9-5.1c-1.7-1.8-3.9-1.3-5.9-1.3
		c-16.5,0-33,0-49.4,0c-7.8,0-8.3-0.5-8.4-8.5c0-8.3,0.1-16.6-0.1-24.9c-0.1-0.4-0.2-0.8-0.5-1.1c-0.5-0.2-1-0.3-1.5-0.2
		c-0.4,0.1-0.7,0.2-1.1,0.2c-0.8-0.2-23.9,12.5-23.7,11.4c0.6-0.5,22.5-12.7,26-14.8c0.8-0.2,1.8-0.3,2.1-0.2c2,1.1,1.5,21,1.5,30.1
		c0,1.6-0.3,3.2,0.4,4.7c1.4,1.6,3.3,0.8,5,0.8c18.1,0.1,36.3,0,54.4,0c1.1,0,2.3,0.1,3.4,0c1.5-0.1,1.9,0.6,1.9,2
		c-0.1,2.4,0,4.8,0,7.2c0,6.4,0,12.8,0,19.3c0,0.8,0,1.8,0.7,2.4c0.8,0.7,1.8-0.3,2.5-1c6.1-5.7,12.1-11.5,18.3-17.1
		c1.1-1,2-3.7,3.8-2c1.7,1.5-1,2.6-1.7,3.8c-0.9,1.5-2.2,2.7-3.2,4.2c-0.4,0.6-0.5,1.5,0,2.2c0.5,0.7,1.4,0.6,1.7,0.2
		c1.3-1.2,2.2-0.5,3.3,0.3c4.3,3.3,8.7,6.5,13.1,9.8c3.2,2.4,2.2,1.7-1.5,8c-5.1,8.8-10.5,17.4-16.6,25.6c-2.8,3.7-5,7.8-7.7,11.5
		c-1.3,1.9-1.7,3.8-1.1,5.9c1.9,6.7,3.8,13.4,5.6,20.2c0.5,1.7,1.2,2.7,3.2,3c4.2,0.7,8.4,1.7,12.6,2.5c9.5,1.8,19,3.6,28.5,5.4
		c3.1,0.6,6.3,1,9.4,1.6c2.2,0.5,4.5,1,4.1,4.2c-0.2,1.6,0.9,2.1,2.4,2.4c6.7,1.4,6.5,1.4,7.3,8c1,8,2.2,16.1,3.7,24
		c0.5,2.7-0.8,3.7-2.7,4.8c-12.6,7.3-25.1,14.7-37.8,21.9c-2.6,1.5-3.9,3-3.8,6.3c0.3,8,0.2,16-0.8,24c-0.3,2.4,0.6,3.8,2.6,5.1
		c10,6.9,19.9,14.1,29.8,21c2.2,1.5,4.4,2.8,2.5,6.1c-0.7,1.2,0.4,2.1,1.3,2.8c2.5,1.8,4.9,3.5,7.4,5.3c1.1,0.8,1.7,1.5,1.3,3.1
		c-3.2,11.8-6.3,23.6-9.2,35.4c-0.5,2.3-1.4,2.8-3.5,2.8c-12.2-0.1-24.4,0.2-36.6-0.2c-4.1-0.1-8.3-0.5-12.4-0.7
		c-1.9-0.1-3,0.6-3.9,2.1c-6.2,9.3-12.4,18.7-18.8,27.9c-1.4,2-0.3,3.3,0.4,4.7c5.7,11.4,11.4,22.7,17.1,34.1
		c0.9,1.8,2.4,3.3,0.8,5.6c-0.7,1,0.4,2.1,0.9,3.1c1.9,4,3.8,8.1,5.9,12c0.8,1.5,0.6,2.1-0.8,3.4c-6.1,6.2-13,11.9-20.3,17.5
		c-3.2,2.5-5.1,0.5-8-0.5c-5.7-2-11.9-5-17.8-7.6c-4.8-2.1-9-3.9-14.1-6.2c-6.7-3-10.3-5.5-15.7-3.8c-8.3,2.5-16.8,4.8-25.2,7.1
		c-3.7,1-3.9,1.5-4.1,5.6c0,0.8-0.1,2.1,0,2.9c0.2,16.4-1.3,32.7-1.4,49.1c0,1.4-0.3,2.9-0.5,4.3c-0.4,3.9-0.4,3.9-4.5,3.9
		c-10.4-0.1-20.8-0.4-31.3-0.4c-2.3,0-3.5-0.8-4.6-2.6c-7.6-11.8-15.4-23.6-22.9-35.5c-1.6-2.4-3.2-3.7-6.2-3.5
		c-3.4,0.2-6.7-0.1-10.1,0c-7.7,0.3-15.4-0.7-23-1c-3.2-0.1-5.2,0.7-6.9,3.7c-9.6,16.8-19.5,33.4-29.2,50.1c-2.8,4.9-3.2,4.8-8.7,3
		c-8-2.7-16.1-5.2-24.2-7.4c-2.4-0.7-2.9-1.7-3-3.9c-0.7-14.9-1.4-29.9-2.7-44.8c-0.2-1.8-0.2-4.8-0.2-6.6c0-3.3-2.3-4.4-5.5-6.7
		c-6.9-5-13.8-9.7-20-14.6c-3.8-3-5.5-3.9-8.6-2.4c-18.7,9.1-37.5,18-56.1,27.2c-3.7,1.8-5.4,0.2-9.8-2.3c-5.5-3.2-10.4-6.1-14.6-9
		c-3.5-2.4-4.3-2.6-2.5-4.2c3.2-2.9,6.4-5.9,9.5-8.9c0.8-0.8,2.5-1.4,1.3-3.1c-1.1-1.6-3.4-1.8-5-1.1c-2,0.9-3.7,2.3-6.1,3.9
		c-4.6,3.1-8.3,6.1-12.6,10c-1.8,1.6-4.7,4.6-5.5,5.4c-0.6,0.6-0.8,0.6-1.4,0.2c-0.6-0.5-0.4-0.7,0-1.3c0.8-1,1.5-2.1,2.3-3.1
		c20-25.1,40-50.2,60-75.3c3.6-4.5,3.5-4.8-1.8-6.7c-10.3-3.7-21-5.1-32-5.5c-15.9-0.6-31.6,1-47.3,3.6c-9.1,1.5-18.2,3.6-27.2,5.7
		c-1.7,0.4-3.5,0.6-5.2,0.6c-11.4-0.1-22.8,0.1-34.2-0.4c-7.9-0.3-15.7-0.3-23.6-0.6c-3.5-0.1-7-0.7-10.5-1c0.5-2.5,2.5-2,4.1-2.1
		c3.3-0.2,6.6,0,9.9-0.1c17.1,0,34.3,0,51.4,0c4.7,0,9.3-0.5,13.9-1.6c21.4-4.9,43.1-8.5,65.2-8.1c12.4,0.2,24.6,1.7,36.4,5.9
		c3.8,1.3,6.2,0.7,8.7-2.5c4.5-5.7,8.6-11.6,13.7-16.7c1.5-1.2,2.5-2.8,3.5-4.4c9.3-12.7,19.6-24.7,29.3-37.1
		c1.7-2.2,4.6-5.6,6.3-7.7c2-2.4,3.8-4.9,7.3-6.2c3.3-1.2,5-5.6,7.4-8.6c2.1-2.6,4-5.4,6.3-7.9c1.9-2.1,3.5-1.8,4.9,0.5
		c2,3.3,3.2,7,4.8,10.5c2.1,4.5,2.3,4.5,5.6,0.9c17.3-18.5,34.2-37.3,51.2-56.1c2.3-2.5,4.6-5,7.3-6.9c3.3-1.7,3.9-5.7,6.7-7.8
		c9.1-11.1,19.3-21.3,28.8-32c5.5-6.2,11.2-12.2,16.7-18.5c2-2.3,4.1-4.5,6.6-6.2c2.2-1,2.4-3.4,3.6-5.1c0.3-0.3,0.6-0.5,1-0.7
		c0.5-0.3,1-0.7,1.3-1.2c0.2-0.4,0.5-0.7,0.8-1c3.6-4,6.9-8.2,10.7-12c1.2-1.1,2-2.4,2.3-4.4c-2-0.5-3.5-0.4-5.2-0.4
		c-58.8,0-117.6,0-176.4,0c-1,0-2.1,0-3.1,0.1c-1.1,0-1.9,0.1-3,0.4c-1.7,1.3-1.3,3.2-1.3,4.9c-0.1,5.6,0.1,11.2-0.1,16.7
		c-0.1,1.7,0.5,4-2.2,4.5c-0.1-9-0.1-18-0.1-27c0-18.8,0.1-37.6-0.1-56.3c0-2.9,0.9-4.6,3.4-6.1c7.5-4.6,14.8-9.5,22.3-14.2
		c1.8-1.1,23.8-15.6,24.7-16c1-0.4,1.9-1.2,2.9-1.8c7.3-4.7,14.5-9.4,21.8-14c2.3-1.5,2.5-1.4,2.5,1.4c0,8,0,16.1,0,24.1
		c0,3.4,0.5,3.7,3.6,2c6.7-3.7,13.4-7.5,20.2-11.1c1.8-0.9,2.1-2.1,2.1-3.9"/>
	<path id="XMLID_951_" class="st2" d="M278.5,503.2c1.6,0.3,1.6-1.7,2.8-2c1.9-0.1,4,0.8,3.7,2.5c-0.3,1.9-2.6,0.8-4,0.6
		c-0.8,0-1.7-0.1-2.5-0.1C278.5,503.8,278.5,503.5,278.5,503.2z"/>
	<path id="XMLID_950_" class="st3" d="M281,504.2c0.9,0,1.8-0.1,2.7-0.1c0.4,0,0.9,0,1-0.5c0-0.1-0.5-0.4-0.7-0.4
		c-1.7,0.3-1.5-1.8-2.7-2c4.5-7,9.7-13.5,14.7-20.2c41-55.1,82-110.1,122.9-165.2c1.9-2.5,3.5-4,7.1-3.1c3,0.8,6.4,0.4,9.6,0.5
		c0.7,1.9,0.3,3.3-1.7,4.2c-8.2-2.4-10.3-1.6-15.4,5.2c-20.1,26.7-40,53.5-59.9,80.3c-23.5,31.7-47.3,63.2-70.6,95.1
		c-0.7,1-2.3,2-1.7,3.1c0.5,1.1,2.3,0.8,3.6,0.8c2.6,0.1,5.1-0.1,7.7,0.1c1.6,0.1,3.7-0.5,4.3,2c-4.1,0-8.1,0.1-12.2,0.1
		c-0.9,0-1.9-0.3-2.4,0.8C285.1,505.1,283,505.3,281,504.2z"/>
	<path id="XMLID_3_" class="st4" d="M730.4,151.8"/>
	<path id="XMLID_944_" class="st5" d="M433.5,317.2c1.8-0.7,1-2.8,2.1-3.9c1.6-0.6,2.5-2,3.4-3.2c1.9-2.6,3.9-5.1,5.8-7.7
		c0.8-1.2,1.8-1.6,3.2-1.4c10.4,1.6,20.7-0.1,31-0.8c9.4-0.6,18.7-2.3,27.9-4.2c1.7-0.4,3.4-0.6,4.8-1.9c1.7-0.7,0.9-2.2,0.9-3.3
		c0.1-7.3,0-14.6,0.1-21.9c0-1-0.6-2.3,1.1-2.7c0.3,0.4,0.6,0.9,0.8,1.3c0.9-0.4,0.4,1.1,0.4,1.7c0.5,5.7-0.2,11.4,0,17.1
		c0.1,1.7-0.4,3.5,0.6,5.1c0.3,0.2,0.7,0.4,1.1,0.5c1,0.1,2-0.2,3-0.5c1.2-0.3,2.5-0.5,3.6-1.1c2.7-1.1,5.4-2,8.1-2.9
		c1-0.3,2.1-0.7,3.1-1c0.8-0.3,1.7-0.6,2.5-0.9c2.6-0.9,5-2,7.6-2.9c2.2-0.8,4.5-1.2,6.7-2c3-1,6.1-1.5,9.2-2.2
		c0.5-0.1,1-0.1,1.5-0.1c0.8,0,1.5,0,2.3,0c2.9,0,5.7,0,8.6,0c0.8,0,1.5,0,2.3,0c1.3,0,2.5,0,3.8,0.1c2.2,0.3,4.3,0.8,6.4,1.2
		c1.3,0.4,2.7,0.7,4,1c0.9,0.2,1.7,0.5,2.6,0.7c2.1,0.6,4.2,1.2,6.2,2.1c1,0.5,2,0.8,3,1.2c0.6,0.2,1.2,0.5,1.7,0.8
		c3,1.5,6.1,3,8.9,4.9c1.1,0.7,2.2,1.3,3.2,2c0.5,0.3,1.1,0.7,1.6,1c3.2,2.2,6.2,4.7,9,7.4c1.1,0.8,2.2,0.7,3.3,0.3
		c0.8-0.3,1.5-0.7,2.2-1.1c3.1-1.5,6.1-3,9.1-4.6c0.8-0.4,1.5-0.7,2.3-1.1c1-0.4,2-0.7,3-1.2c2.7-1.2,5.4-2,8.2-2.9
		c1.1-0.3,2.2-0.7,3.3-1c1.3-0.3,2.7-0.4,4-0.9c2.9-1.1,6.1-1.2,9.1-2c0.5-0.1,1-0.2,1.5-0.2c0.7-0.1,1.5-0.1,2.2-0.1
		c3.4-0.1,6.9,0.2,10.3-0.3c0.5-0.1,1-0.2,1.5-0.3c0.8,0,1.5,0.1,2.1,0.5c0.4,0.4,0.5,0.8,0.2,1.3c-0.9,0.3-1.1,1-1,1.8
		c0,2.2-1.3,3.4-3.3,3.8c-0.4-2.3-2-2.4-4-2.3c-15.2,1.3-29.6,5.4-43.2,12.3c-3,1.5-4.1,3.7-4.1,6.9c0.1,10.4,0,20.8,0,31.3
		c0,2.9,0,5.8-0.5,8.6c-0.9,1.6-3,2.3-3.3,4.7c-0.2,1.3-1.7,3-3.7,3.1c4.1-14.9,1.2-30.2,2-45.3c0.1-2-0.4-3.7-2-5.2
		c-15.1-14.4-32.8-23.1-53.7-23.9c-9.5-0.4-18.8,1.8-27.7,5.3c-19.9,8.1-40.6,12.9-62,15.2c-9.2,1-18.5,1.7-27.8,1.2
		c-4.2-0.2-7.1,1.1-9.8,4.6c-20.3,26.9-40.6,53.8-60.9,80.7c-20.4,27-40.9,54-61.2,81.1c-1,1.3-4,2.8-0.8,4.9
		c3.8,1.1,7.6,0.3,11.4,0.5c1.7,0.1,3.5-0.1,5.2,0.7c0.6,0.3,0.8,0.8,0.6,1.4c-2.3,2.5-5.4,1.3-8.1,1.5c-2.7,0.2-5.4,0-8.1,0
		c-1.6,0-3.2,0-4.8-0.2c-2-0.1-4.5,0.5-5.5-1.9c-1-2.3,1-3.9,2.1-5.5c2.8-3.9,5.7-7.7,8.6-11.6c21-27.5,41.7-55.3,62.7-82.9
		c14.2-18.6,28.1-37.4,42.3-56C429.2,320.3,430.2,317.4,433.5,317.2z"/>
	<path id="XMLID_943_" class="st6" d="M552.2,487.8c-1.8,5.6-3.2,11.4-3.7,17.3c-0.4,4.4,0.6,8.5,4,11.8
		c9.9,9.3,21.5,15.5,34.2,19.9c11.3,4,23.1,6.1,35.1,7.1c6.4,0.5,12.8,0.9,19.2,0.6c21.6-1,42.4-5.3,62-14.6
		c2.6-1.2,5.1-2.7,7.5-4.3c7-4.5,10.2-11.1,10.4-19.4c0.1-6.7-1.6-13-4.3-19c-4.7-10.8-11-20.6-18.2-29.8
		c-8.3-10.6-17.2-20.7-26.9-30.1c-0.7-0.7-1.4-1.3-2.1-2c-1-1.1-1.9-1.2-3.2-0.2c-2.7,2-5.4,4-8.4,5.6c-6.5,3.6-13.6,5.2-20.9,6.3
		c-12.1,1.7-23.9,0.1-35.7-2.1c-1.8-0.3-2.3-0.9-1-2.4c1.2-1.3,2.2-2.7,3.4-4c8.9-9.9,17.9-19.7,26.7-29.6c1.7-2,3.5-2.8,6.2-2.5
		c4.3,0.6,8.6,0.5,12.6-1.9c7.8-4.7,11.3-12.9,8.8-21.7c-0.6-2-0.8-3.5,0.8-5.2c9.3-10.2,18.5-20.4,27.8-30.6c0.4-0.5,0.9-1,1.3-1.4
		c1.8-1.8,2.2-1.7,2.9,0.9c1.1,3.7,2.3,7.3,2.9,11.1c1.2,7.1,2.4,14.2,2.2,21.4c-0.3,10.6-2,20.6-7.8,29.7c-0.9,1.3-1.1,2.4-0.1,3.9
		c15.7,24.2,35.4,44.1,61.7,56.9c6.6,3.2,6.6,3.2,12.1-1.4c16.4-13.6,27.6-30.7,31.9-51.6c2.1-10.1,2.9-20.5,1.7-31
		c-1.1-8.9-2.5-17.7-5.2-26.2c-5.6-17.8-14-34-27.9-46.9c-2.7-2.5-5.6-4.7-9-6.3c-1.4-0.7-1.3-1.4-0.4-2.5
		c8.5-10.4,17-20.8,25.5-31.3c9.2-11.3,18.3-22.6,27.5-33.9c4-5,8.3-9.8,12.2-14.8c1.4-1.8,2.4-1.5,3.8-0.4c2.1,1.7,5.5,2.9,6.2,5
		c0.7,2.3-2.3,4.6-3.8,6.8c-7.3,11.3-14.6,22.5-22,33.8c-1.2,1.8-1.6,3.4-0.8,5.8c2.8,8.8,5.4,17.7,7.7,26.6
		c0.5,1.9,1.4,2.8,3.1,3.1c8.8,1.7,17.5,3.3,26.3,4.9c10.5,2,21,3.9,31.5,5.8c1.4,0.2,1.8,0.8,2,2.1c1.2,8,2.4,16.1,3.7,24.1
		c0.4,2.2-0.4,3.4-2.4,4.6c-12,6.8-23.8,13.8-35.8,20.5c-3.1,1.7-4.3,3.6-4.2,7.1c0.3,9.9-1,19.8-1,29.8c0,2.8,1,4.3,3.1,5.8
		c12.6,8.8,25.1,17.7,37.7,26.5c2.1,1.4,2.8,2.7,2,5.5c-2.5,8.6-4.3,17.3-6.5,25.9c-1.3,5.2-1.4,5.2-6.6,5.2
		c-14-0.1-27.9-0.1-41.9-0.3c-3.1,0-5.2,0.7-7.1,3.5c-5.9,9.1-12,18.1-18.3,27c-1.8,2.6-1.8,4.6-0.4,7.4c8.1,15.8,16,31.7,23.9,47.6
		c1.6,3.2,1.6,3.2-1,5.4c-5.2,4.5-10.5,8.9-15.7,13.4c-1.6,1.4-3,1.7-5.1,0.7c-13.1-5.9-26.3-11.5-39.5-17.4c-2.2-1-4.3-1.3-6.5-0.6
		c-10,2.8-19.9,5.7-29.8,8.6c-3.5,1-3.5,1.1-3.6,4.9c-0.1,5.1,0,10.3-0.2,15.4c-0.4,11.9-1.1,23.7-1,35.6c0,0.8-0.1,1.6-0.2,2.4
		c-0.6,3.4-0.6,3.5-4.2,3.5c-8.2,0-16.4-0.2-24.6,0.1c-3.5,0.1-5.5-1-7.4-3.9c-6.8-10.6-14-21-20.9-31.6c-1.6-2.4-3.2-3.4-6.1-3.5
		c-11.8-0.6-23.7-0.6-35.6-0.9c-3.1-0.1-4.7,0.7-6.4,3.6c-9.2,16.1-18.8,32-28.2,48c-2,3.5-2,3.5-5.9,2.4c-7.1-2-14.1-4.1-21.1-6.1
		c-2-0.6-3.2-1.2-3.4-3.7c-0.2-2.7-0.6-5.4-0.6-8.1c-0.4-13-2.1-25.8-2.2-38.8c0-3.4-1.4-5.9-4.4-7.8c-8.3-5.6-16.6-11.4-24.7-17.4
		c-2.4-1.8-4.4-2.2-7-0.7c-1.9,1.1-4,1.9-6,2.9c-16,7.7-32,15.3-48,23c-2.4,1.1-4.4,1.4-6.7-0.1c-4.6-3-9.2-5.7-14-8.4
		c-1.9-1.1-1.6-1.9-0.2-3.1c4.8-4,9.5-8.1,14.3-12.1c9.2-7.7,18.4-15.4,27.6-23.1c9.4-7.9,18.9-15.8,28.3-23.8
		c1.7-1.4,3.4-3,5.1-4.4c1.1-0.9,1.8-0.6,2.4,0.8c1.9,4.6,3.9,9.1,5.8,13.7c0.7,1.7,1.3,1.9,2.6,0.5c5.1-5.7,10.3-11.4,15.5-17.1
		c3.8-4.1,7.6-8.3,11.4-12.4C552.1,486.5,552.5,486.8,552.2,487.8z"/>
	<path id="XMLID_942_" class="st7" d="M321,477.6c-3.1-1.2-3.2-1.2-1.2-3.8c14.8-19.6,29.6-39.2,44.3-58.8
		c26.9-35.6,53.8-71.1,80.6-106.8c2.2-3,4.4-4.2,8.3-4.1c31.5,0.7,61.8-4.6,91.2-16.2c26.5-10.4,50.9-5.3,73.6,10.8
		c3.8,2.7,6.6,6.5,10.8,8.7c0.9,0.5,0.6,1.4,0.6,2.1c0,14.3,0,28.6,0.1,42.8c0,2.7-2.5,3.6-3.2,5.7c-6.5,6.2-12.2,13.1-18.3,19.7
		c-13.9,15.1-27.6,30.3-41.4,45.5c-0.5,0.6-1.1,1.2-1.6,1.8c-0.9,0.9-1.5,0.7-2.1-0.5c-1.7-3.8-3.4-7.6-5.2-11.4
		c-2.9-6.5-2.9-6.5-7.3-1c-3.5,4.4-6.9,8.8-10.4,13.2c-0.7,0.9-1.2,2.8-3.2,1.1c-0.9-0.8-1.4,0.8-1.9,1.5
		c-6.5,8.1-13,16.2-19.5,24.4c-6.3,8-13,15.8-19,24.1c-1.6,1.6-3.3,0.8-4.9,0.2c-10.6-4.2-21.7-5-33-5.3
		c-22.9-0.7-45.3,3.2-67.5,8.2c-2.1,0.5-4.1,0.6-6.2,0.6c-12.7,0-25.4,0.1-38,0c-2.5,0-5.2,0.6-7.3-1.5l0,0
		c-4.4-0.9-8.9-0.1-13.3-0.4C324.4,478.1,322.6,478.7,321,477.6z"/>
	<path id="XMLID_941_" class="st8" d="M711.2,165.1c6.4-3.1,18.3-10.5,18.3-10.5c0.9-0.4,2.5-0.8,2.5-0.8c0.8,2.7,0.9,21.6,0.7,30.7
		c-0.1,3.3,1.1,4,4.1,4c18.6-0.1,37.2-0.1,55.8,0c1.8,0,2.3,0.1,5.1,0.1c0,9.3-0.1,20,0,29.3c0,2.3-0.7,3.7-2.4,5.3
		c-13.3,12.3-26.5,24.7-39.6,37.2c-2.1,2.1-4.2,2.9-7.2,2.9c-29.7-0.1-59.4-0.1-89.1-0.1c-46.7,0-93.5,0-140.2,0
		c-6.5,0-5.5,0.7-5.6-5.7c0-15.3,0.1-30.5-0.1-45.8c0-2.8,0.9-4.3,3.2-5.8c17.4-11.1,34.8-22.3,52.1-33.5c4.8-3.1,9.6-6.3,14.5-9.4
		c3.1-2,3.4-1.8,3.4,1.7c0,8.2,0,16.4,0,24.6c0,1.8,0.4,2.3,2.1,1.4c7.3-4.1,14.6-8,21.8-12.1c13.1-7.3,26.3-14.7,39.4-22
		c3.2-1.8,6.4-3.6,9.6-5.4c1.6-0.9,2.2-0.6,2.2,1.3c-0.1,11.4,0,22.8,0,34.2c0,1.6-0.1,3.2,0,4.8c0.1,2,0.4,2.2,2.2,1.1
		c9.4-5.5,18.8-10.9,28.1-16.5C698.6,172.7,705.2,169.4,711.2,165.1z"/>
	<path id="XMLID_940_" class="st9" d="M636,541.7c-22.3-0.4-43-3.8-62.3-13.6c-6.6-3.4-12.6-7.6-18.3-12.3c-3.6-3-4.3-6.5-2.9-10.7
		c4.4-13.3,10.9-25.6,17.7-37.8c0.7-1.3,1.8-2.2,3-3.1c5.2-4.3,10.2-8.8,14.9-13.6c2.2-2.3,4.1-2.8,7.1-1.9
		c10,2.8,20.3,4.4,30.8,4.5c15.2,0.1,29.7-2.7,42-12.4c2-1.5,2.8-0.2,3.9,1c10.5,10.8,20.5,22.1,29.3,34.4
		c5.6,7.8,10.7,16,14.8,24.7c3.2,6.7,1.7,12.5-2.5,17.9c-2.5,3.3-5.9,5.3-9.5,7.2c-14.1,7.3-29.1,11.6-44.7,13.9
		C651.5,540.9,643.3,541.4,636,541.7z"/>
	<path id="XMLID_939_" class="st9" d="M752.5,305.7c6.3-1.9,11,2.4,15.6,7.1c2.7,2.8,4.7,6.1,6.7,9.4c9.9,16.3,15.7,33.9,17.5,52.9
		c1.9,19.7-1.4,38.3-11.2,55.6c-5.8,10.2-13.6,18.6-22.7,25.9c-2,1.6-3.6,1.9-6,0.8c-10.6-4.9-20.2-11.2-29.1-18.7
		c-9.6-8.1-18-17.3-25.7-27.3c-1.8-2.3-2-4.2-0.8-7c4.8-11.3,6.4-23.1,5-35.3c-0.2-2.1,0-4.3-0.6-6.2c-1.2-4-0.1-6.9,2.6-10
		c12-14.4,23.9-29,35.6-43.6c2.1-2.7,4.2-4.1,7.6-3.6C748.4,305.9,749.9,305.7,752.5,305.7z"/>
	<path id="XMLID_937_" class="st8" d="M433.5,317.2c-6.1,6.8-11.2,14.3-16.7,21.6c-15.4,20.2-30.6,40.6-45.9,60.9
		c-14.5,19.3-29.1,38.6-43.6,57.8c-4.5,6-9.1,11.9-13.7,17.9c-0.7,0.9-1.9,1.6-1.2,2.9c0.6,1.2,2,0.7,3.1,0.8
		c1.8,0.1,3.5,0.1,5.3,0.1c1.5,0.8,3.2,0.4,4.7,0.4c12.3-0.1,24.7-0.4,37,0.1c17,0.8,33.4-1.9,50-5.2c22.1-4.3,44.4-6,66.8-1.7
		c3.6,0.7,7.2,1.5,10.6,3.1c1.4,0.7,4.1,1.2,2.3,3.9c-5.5,5.6-9.8,12.2-14.9,18.2c-0.6,0.7-1.2,1.5-1.7,2.3c-1.3,2-2.7,1.9-4.9,1
		c-8.1-3.5-16.7-5.1-25.5-6.1c-7.7-0.9-15.4-0.9-23-0.7c-14.2,0.4-28.3,2.4-42.3,5.2c-6.2,1.2-12.4,2.9-18.7,4.1
		c-2,0.4-4.2,0.4-6.2,0.4c-17.7-0.1-35.3-0.2-53-0.3c-2.4-1.3-5-0.5-7.5-0.8c-1-0.1-1.9-0.1-2.9-0.1c-2.6,0-5.1-0.1-7.5-1.1
		c0.8-2.4,2.6-4.2,4.1-6.1c11.3-15.3,22.6-30.6,34-45.9c16.4-22.1,32.9-44.1,49.4-66.2c16.3-21.8,32.5-43.6,48.7-65.5
		c1.8-2.4,3.5-3.4,6.4-3.1c2.1,0.2,4.2,0,6.3,0.1C433.8,315.4,433.6,316.4,433.5,317.2z"/>
	<path id="XMLID_936_" class="st8" d="M718.9,624.6c-0.1,4.2-0.1,8.3-0.2,12.5c-0.1,3.4-0.3,3.6-3.5,3.7c-9.9,0.4-19.8-1.3-29.7-0.7
		c-2.2,0.1-2.6-1.6-3.4-2.8c-5.1-7.7-10.1-15.5-15.2-23.2c-2.2-3.3-4.7-6.5-6.4-10.1c-2-4-5-5.3-9.1-5.3c-7.5,0-15.1-0.2-22.6-0.2
		c-4.5,0-8.9-1-13.4-0.9c-2.4,0.1-3.7,0.8-4.9,2.9c-10.2,17.7-20.5,35.3-30.8,53c-0.8,1.3-1.3,2.3-3.3,1.6
		c-7.9-2.5-15.8-4.9-23.7-7.1c-2.4-0.7-3.6-1.6-3.4-4.2c0-5.1-0.4-8.9-0.8-15.3c0.3-0.5,0.6-0.5,1-0.1c10.3,3.1,20.7,6.1,31,9.2
		c1.8,0.5,2.1-0.7,2.8-1.8c3.2-5.5,6.5-11,9.7-16.5c6.7-11.4,13.5-22.8,20.1-34.2c1.3-2.3,2.9-2.9,5.4-2.9
		c11.2,0.1,22.4,1.4,33.6,0.9c2.3-0.1,3.4,1.2,4.5,2.9c7,10.6,14.1,21.2,21.2,31.8c0.9,1.3,1.9,2.5,2.8,3.8
		c11.3,1,22.7,0.2,34.1,0.5c1.1,0,2.3-0.1,3.4,0C719.2,622.4,719.2,622.4,718.9,624.6z"/>
	<path id="XMLID_935_" class="st8" d="M719,593.1c-0.5-3.5,0.8-17.3,1.4-25.9c0.1-2.2,0.2-4.1,0.2-5.3c0-1.1,0.6-1.6,1.7-1.9
		c9.8-2.7,19.6-5.5,29.3-8.4c1.7-0.5,2.8,0.2,4.1,0.7c13.9,6,27.8,12,41.6,18.1c2.2,1,3.4,0.5,5-0.9c5-4.5,10.2-8.8,15.2-13.3
		c1.7-1.6,2.3-0.7,3.1,0.8c1.4,3,2.8,6.1,4.4,9c1.1,1.9,0.9,3.2-0.8,4.6c-3.5,3-6.9,6.3-10.5,9.1c-2.3,1.8-4.3,3.9-6.5,5.7
		c-1.5,1.2-2.8,1.4-4.8,0.5c-11.3-5.2-22.7-10.2-34-15.3c-3.6-1.6-7.2-4.1-11-4.4c-3.6-0.3-7.3,1.8-11,2.8
		c-8.6,2.4-17.8,5.1-26.4,7.5C719.7,577.2,719.2,593.7,719,593.1z"/>
	<path id="XMLID_934_" class="st8" d="M545.5,589.8c-4.6-4.5-10.2-7.6-15.2-11.5c-5-3.9-10.4-7.4-15.5-11.2c-1.2-0.9-2.1-1-3.4-0.3
		c-2.6,1.3-5.2,2.4-7.8,3.7c-14.5,7-29,14.1-43.5,21.1c-3.4,1.7-7,3.2-10.5,4.7c-3.2-1.9-6.3-3.7-9.5-5.6c-3.1-1.9-6.2-3.9-9.3-5.9
		c-1-0.6-1.2-1.3-0.2-2.3c2.8-2.6,5.6-5.3,8.3-8.1c1.3-1.3,2.4-1.1,3.8-0.2c3.1,2,6.3,3.8,9.4,5.7c1.9,1.2,3.6,1.4,5.8,0.3
		c13.6-6.6,27.3-13.1,41-19.6c5-2.4,10.1-4.7,15.1-7.2c1.6-0.8,2.9-0.7,4.3,0.4c8.3,6,16.6,11.9,24.8,17.9c1,0.7,2.3,1.1,2.2,2.8
		c0.6,6.2,2.8,27.3,1.7,31.8C546.8,606.7,545.7,590.2,545.5,589.8z"/>
	<path id="XMLID_933_" class="st9" d="M632,349.7c-1.3-0.4-1-1.5-1-2.4c-0.1-13.3-0.1-26.6-0.2-39.9c0-1.7,0.1-3,1.9-4
		c15.8-8.4,32.4-13.8,50.4-14c0.3,0,0.6,0,1,0c2.2-0.1,1.4,0.9,0.7,1.9c-0.4,0.5-0.7,1-1.1,1.6c-9.4,10.2-18.9,20.4-28.3,30.7
		C647.6,332.3,639.5,340.7,632,349.7z"/>
	<path id="XMLID_932_" class="st8" d="M850.6,476.4c-2.5,0-8.6-0.2-14.5-0.6c-4.2-0.3-8.3-1.1-11.3-0.3c-4.4,1.3-4.6,3.6-5.5,4.9
		c-5.2,8.2-10.8,16.2-16.3,24.2c-1.4,2-1.5,2-2.7-0.2c-4.4-7.9-4.4-7.9,0.6-15.2c4.8-7.1,9.8-14.2,14.5-21.4c1.4-2.1,2.7-3.1,5.3-3
		c10.9,0.2,21.8,0,32.7,0.3c4,0.1,7.9,0.6,11.9,0.6c5.3,0,4.2-0.3,5.4-4.3c2.3-7.8,4-15.7,6-23.5c0.7-2.9,0.8-3,3.1-1.3
		c1.8,1.3,4.3,2.3,5.1,4.1c0.6,1.5-0.8,3.9-1.3,5.9c-2.3,8.9-4.6,17.8-6.8,26.7c-0.8,3.1-0.8,3.2-4.1,3.2c-7.4,0-14.8,0-22.1,0
		C850.6,476.5,850.6,476.5,850.6,476.4z"/>
	<path id="XMLID_929_" class="st8" d="M698.9,465.8c-2.2-2.5-3.2-4.2-6.7-8.2c-2.1-2.3-4.4-4.6-6.3-7c-4.3-5.2-9.9-8.9-14.5-13.8
		c-1.1-1.2-1.9-1.2-3.2-0.1c-8.8,7.8-19.4,11-30.9,12.6c-15,2.1-29.5-1-43.9-4.2c-0.6-0.1-1.2-0.5-1.8-0.8c-1-0.4-1.2-1-0.6-1.8
		c0.6-0.9,1.3-1.8,2-2.7c1.6-2.2,3.2-3.2,6.4-2.3c12,3.4,24.3,3.8,36.6,2.8c10.7-0.9,20.9-4.1,29.6-10.8c1.4-1.1,2.2-1.2,3.5,0.1
		c7.4,7.5,15.3,14.6,21.8,23c3.2,3.6,5.2,6,9.4,11.4c3.4,4.4,6.9,13.8,11.1,19.7C715.9,490,699.2,465.8,698.9,465.8z"/>
	<path id="XMLID_928_" class="st8" d="M835.4,391.9c1.5-9.8,0.8-18.9,1-28.1c0.1-2.3,0.7-3.8,2.8-5c7.8-4.3,15.5-8.9,23.2-13.4
		c5.1-3,10.2-6,15.3-9c1.2-0.7,1.9-1.2,1.7-2.9c-1-6.4-1.8-12.9-2.7-19.4c-0.1-0.9-1.6-2.3,0.2-2.7c1.4-0.4,3.3-0.6,4,1.5
		c0.2,0.6,0.5,1.2,0.6,1.8c1.3,8.5,2.5,17,3.8,25.4c0.2,1.6-0.6,2.3-1.8,3c-5.8,3.3-11.6,6.7-17.4,10.1c-7.3,4.3-14.5,8.7-21.9,12.8
		c-2.3,1.3-3.1,2.8-3.1,5.4c0.1,5.9-0.2,11.9-0.1,17.8c0,2.3-0.8,4.4-0.8,6.6c-0.1,1.5-1,1.2-2,0.7
		C836.2,395.4,834.8,393.9,835.4,391.9z"/>
	<path id="XMLID_925_" class="st10" d="M492.1,479.9c0.6-1.6-0.6-1.9-1.6-2.3c-4.7-2.1-9.7-3.3-14.7-4.1c-8.4-1.4-16.8-2.4-25.3-1.9
		c-11.1,0.6-22.3,1.3-33.3,3.3c-9.6,1.7-19.1,3.4-28.6,5.8c-1.4,0.3-2.9,0.3-4.3,0.3c-12.7-0.1-25.3,0.2-38-0.3
		c-7.8-0.3-15.7-0.5-23.5-0.8c-0.8,0-1.6-0.1-2.2-0.7c4.9,0,9.9,0,14.8-0.1c1.1,0,2.3,0.4,2.8-1.1c4.5-0.4,9,0,13.4,0.1
		c8.7,0.1,17.3-0.2,26,0.3c8.7,0.5,16.8-2,25.1-3.6c20.2-4.1,40.5-6.6,61.1-5.3c9.6,0.6,19.1,2.2,28.1,5.8c1,0.4,2,1.1,3.2,0.7
		C494,477.1,493.8,479.1,492.1,479.9z"/>
	<path id="XMLID_924_" class="st11" d="M536.6,495.1c0.3,2.1-0.2,2.9-0.9,3.6c-3.6,3.9-7.1,7.7-10.6,11.7c-1.5,1.7-1.9,0.6-2.5-0.7
		c-1.8-4.4-3.6-8.8-5.6-13.1c-0.6-1.4-0.2-2,0.8-2.8c3.9-3.3,7.7-6.6,11.6-9.9c2.1-1.7,2.5-1.6,3.5,1c1.1,3,2.3,5.9,3.4,8.9
		C536.6,494.6,536.7,495.4,536.6,495.1z"/>
	<path id="XMLID_923_" class="st8" d="M808.4,268c0.1,0.3,2.6,15.6,3.8,19.5c-0.1-0.3-3.8-12.3-3.8-12.6c-0.4-0.6-2.6-8.4-3.1-9.5
		c-1.3-2.6-0.5-4.9,1-7.1c7.5-11.3,14.9-22.6,22.3-33.9c1-1.6,2-3.2,3-4.9c0.8-1.4,1.8-1.5,3.1-0.6c1.3,0.9,2.5,1.8,1.4,3.5
		c-1.2,2-2.6,4-3.9,6c-7.9,11.9-15.3,24.2-23.6,35.9C807.5,265.5,807.8,266.7,808.4,268z"/>
	<path id="XMLID_922_" class="st11" d="M701.8,316.7c0.7-0.2,0.6,0.5,0.8,0.8c1.3,1.9,1,4.3,1.5,6.4c1.5,5.6,2.3,11.4,3.6,17.1
		c0.2,1,0.4,1.8-0.3,2.6c-1.9,2.5-3.8,5-5.9,7.5c-0.8,1-1.6,0.7-1.9-0.7c-1.9-7.5-3.8-15-5.7-22.5c-0.3-1.1-0.4-2.2,0.5-3.2
		c2.3-2.6,5.1-4.9,7-7.9C701.4,316.9,701.6,316.8,701.8,316.7z"/>
	<path id="XMLID_915_" class="st8" d="M694.9,401.5c-0.4,0.9-0.5,2.6-1.9,2c-1.2-0.5-1.6-4.3-1.4-4.7c0.8-1.5,2.7-5.7,3.9-10.3
		c2-7.2,3-15.9,3.3-15.7c0.1,0.4,0.6,7.6-0.5,15C697.5,393.3,695.5,400,694.9,401.5z"/>
	<path id="XMLID_904_" class="st8" d="M581,453c1.4-2.3,3.6-4,5.4-5.9c0.4-0.5,1-1,1.6-0.6c0.9,0.6-0.1,1.1-0.4,1.4
		c-2.2,2.1-4,4.5-6.6,6.1c-0.3-0.2-0.4-0.4-0.3-0.7C580.8,453.1,580.9,453,581,453z"/>
	<path id="XMLID_674_" class="st8" d="M557.9,482.9c0.3-0.5,0.7-0.5,1,0c-0.5,1.7-1.9,3-1.9,4.8c-0.3,0.4-0.6,0.4-0.9,0"/>
	<path id="XMLID_890_" class="st8" d="M560.9,475.3c0.1-1.1,1-1.6,1.7-2.2c0.2-0.2,0.6-0.4,0.8-0.3c0.5,0.3,0.4,0.9,0.1,1.2
		c-0.6,0.7-0.5,1.9-1.5,2.3C561.3,476.3,561.2,475.6,560.9,475.3z"/>
	<path id="XMLID_888_" class="st8" d="M558,482c0.9-1.2,0.5-3,1.8-4c0.6,0.1,0.7,0.7,1,1.1c-0.6,1-0.7,2.3-1.8,2.9
		C558.6,482.4,558.3,482.3,558,482z"/>
	<path id="XMLID_879_" class="st12" d="M464.5,519.5c-0.1-1.5,0.5-2.4,1.9-2.9l0,0C466.5,518.1,465.9,519.1,464.5,519.5z"/>
	<path id="XMLID_875_" class="st8" d="M560.8,479.1c-0.6-0.1-0.9-0.5-1-1.1c0-0.8,0.1-1.6,1-1.9c0.6,0.1,0.6,0.7,0.9,1
		C561.4,477.8,561.1,478.4,560.8,479.1z"/>
	<path id="XMLID_874_" class="st8" d="M808.4,268c-1.2-1.3-1.5-2.6,0.2-3.8C808.5,265.5,808.4,266.8,808.4,268z"/>
	<path id="XMLID_873_" class="st8" d="M581,453c0,0.3,0,0.7,0,1c-0.1,0.3-0.2,0.6-0.4,0.8c-0.4,0.3-0.6,1.3-1.3,0.5
		c-0.2-0.2,0-0.9,0.3-1.2C580,453.7,580.6,453.4,581,453z"/>
	<path id="XMLID_671_" class="st8" d="M555.2,489c-0.4-0.6,0.1-1.1,0.7-1.3c0.3,0,0.6,0,0.9,0"/>
	<path id="XMLID_856_" class="st8" d="M561.7,477.1c-0.6-0.1-0.8-0.5-0.9-1c0-0.3,0-0.6,0.1-0.8c0.6,0.1,0.9,0.5,1,1
		C561.9,476.6,561.8,476.8,561.7,477.1z"/>
	<path id="XMLID_852_" class="st8" d="M558,482c0.3,0,0.6,0,1,0c0,0.3,0,0.6-0.1,0.9c-0.3,0-0.7,0-1,0
		C557.9,482.6,557.9,482.3,558,482z"/>
	<path id="XMLID_849_" class="st12" d="M463.5,520.5c0.1-0.6,0.4-0.9,1-1C464.4,520.1,464.1,520.4,463.5,520.5L463.5,520.5z"/>
	<path id="XMLID_846_" class="st12" d="M466.4,516.6c0.1-0.2,0.3-0.5,0.4-0.7C467.5,516.6,466.7,516.5,466.4,516.6L466.4,516.6z"/>
	<path id="XMLID_845_" class="st5" d="M688.9,287.3c0.2-0.5,0.5-0.8,1.1-0.9C689.8,287,689.5,287.3,688.9,287.3z"/>
	<path id="XMLID_1_" class="st13" d="M549.3,628.4c-0.3,0-0.6,0-1,0.1c0-0.3,0-0.7-0.1-1"/>
	<path id="XMLID_831_" class="st10" d="M319.9,477.1c6.2,0.1,12.3-0.2,18.4,1c-5.4,0-10.8,0.1-16.1,0.1
		C321.3,478.1,320.3,478.3,319.9,477.1z"/>
	<path id="XMLID_816_" class="st2" d="M492.3,420.9c-1.9,2-3.4,4.4-5.7,5.9c-6.7,4.7-12.5,2.4-14.3-5.6c-1.1-4.7-1-9.5-0.9-14.4
		c0-0.6,0.1-1.3,0.1-1.9c0.2-2.7,0.2-2.7-2.3-2.1c-5.6,1.5-11.2,2.8-16.9,3.5c-4.2,0.5-8.3,0.6-12.4-0.6c-5.4-1.6-7.3-5.4-5.5-10.8
		c1.3-3.7,3.7-6.7,6.2-9.6c1.2-1.3,2.4-2.6,1.4-4.6c2.8,0.3,5.1,1.8,7.8,2.4c1,2.4-1.2,2.2-2.3,2.6c-4.1,1.8-6.6,5-8.5,8.8
		c-2.1,4.5-0.7,7,4.3,7.7c4,0.5,8-0.2,12-0.5c11.5-0.7,18.6-5.4,18.7-17.9c0-2.5,0.8-5.1,1.7-7.5c1.3-3.8-0.9-6.3-3.3-8.4
		c-2.5-2.2-4.4,0.5-6.4,1.5c-4.3,2.1-7.2,6.5-12.1,7.5c-1.2-0.9-2.7-1.6-1.8-3.5c1.1,0.3,1.8-0.3,2.6-0.9c4.2-3,8.4-5.9,12.6-8.8
		c2.4-1.7,2.5-1.7,0.7-4.4c-3.5-5.4-6.8-10.8-9.5-16.7c-2-4.2-3.6-8.6-4.2-13.2c-1-7.5,3.2-11.3,10.5-9.8c1.7,0.4,3.4,0.8,5.1,1.5
		c2.6,1,5,2.5,8.1,2.3c2.3-0.2,4.2,1.5,5.1,3.8c1.6,4,5.7,5.4,8.7,8c0.8,0.7,1.4,0,1.8-0.8c1.1-2,2.2-3.9,3.3-5.9
		c3.2-5.4,6.7-10.6,11-15.1c1.9-2,3.9-3.8,6.4-5c4.2-2.1,7.6-1.7,10,2.3c1.4,2.3,1.3,2.8,2.2,4c0.3,0.4,0.2,1-0.3,1.2
		c-0.9,0.3-0.9-0.9-2.7-0.5c-4.8-4.8-6.5-4.9-11.8,0.1c-5.8,5.4-9.6,12.3-13.6,19c-0.9,1.6-1.6,3.4,0.1,4.8c2.3,1.8,3.9,5.5,8.2,2.6
		c3.7-2.5,7.9-4.2,12.3-4.7c3.8-0.4,4.2-2.8,4.4-5.4c0.2-2.7-0.7-5.5,1-7.9c1.9-0.5,2.7,0.5,3.3,2.1c-0.1,2.6-0.2,5.1-0.4,7.7
		c-0.2,1.9,0.8,2.2,2.3,1.7c5.6-1.6,11.2-2.7,17-3.3c3.2-0.3,6.4-0.3,9.6,0.4c6.6,1.5,8.9,5.9,6.3,12.2c-0.8,2-2,3.9-4.1,6.1
		c-2.4,0.5-2-0.9-1.2-3c-0.1-1.2,0.5-2.1,0.9-3.2c2.1-5.3,1.1-7.6-4.4-8.5c-8.3-1.3-16.1,1.4-24,3.6c-1.7,0.5-2.1,2.3-2.5,3.8
		c-1.2,6-2.7,11.9-4.4,17.7c-1.2,4,1.4,6.3,3.8,8.7c1.1,1.1,2.4,0.4,3.5-0.3c5.3-3.6,10.5-7.2,15.4-11.4c1.4-1.2,3.1-2.6,4.6-3.6
		c1.8-1.1,2.3-1.2,4.8-0.5c1,2.8-4.3,1.5-3.4,4.4c-2.3,1.1-1.7,1.3-2.8,2.3c-5.3,4.6-10.9,8.7-16.8,12.5c-3,1.9-2.9,2-1.1,5
		c0.2,0.4,0.4,0.8,0.7,1.3c-0.1,1.3-0.6,2.3-2.1,2.3c-2.5-2.9-4.8-2.5-8.2-0.8c-6.4,3.2-8.9,8.8-11.2,14.9c-0.7,1.9-0.3,3.5,1.2,4.7
		c6.8,5.7,13.9,10.9,22.5,13.5c5.7,1.7,7.8-0.3,7-6.2c-0.4-3-1.6-5.8-2.7-8.7c-0.8-2.2-2.2-4.3-1.9-6.8c0.5-0.9,1.2-1.4,2.3-1.4
		c2.9,4.7,4.9,9.7,6.1,15c0.8,3.8,1.4,7.8-1.7,10.9c-3.4,3.3-7.5,2.1-11.3,0.9c-5.2-1.7-9.9-4.5-14.4-7.7c-3.3-2.3-6.4-4.8-9.6-7.3
		c-0.8-0.6-1.7-1.2-2.3,0.1c-1.3,2.9-4.2,5.7-6.3,8.2c-1.6,1.7-1.7,2.5-5.8,6c-1-2.5,8.7-10.6,5.8-11.2c4.5-3.7,3.4-6.6-0.5-9.8
		c-1.7-1.4-3.4-1.5-5.3-0.6c-4.4,2-8.9,3.7-13.4,5.2c-1.9,0.7-3.6,1.7-3.6,4c-0.2,4.8-0.7,9.6,0.4,14.3c1.5,5.9,4.3,6.8,9.4,3.4
		c1.9-1.2,1.4,0.4,5.7-4C494.7,417.8,492.3,419.4,492.3,420.9z"/>
	<path id="XMLID_809_" class="st14" d="M742,240.1c-1.3,0.1-2.5,0.2-3.8,0.2c-64.7,0-129.5,0-194.2,0c-1.1,0-2.2-0.1-3.4-0.2
		c-0.4-0.5-0.4-1,0.1-1.5c0.8-0.9,1.9-1.3,3-1.6c11.1-0.6,22.3-0.6,33.4-0.1c1.7,0.4,3.3,0.4,5,0c12.1-0.7,24.3-0.2,36.4-0.3
		c2.1-0.5,1.5-2.2,1.6-3.5c0.1-2.4,0-4.8,0.1-7.2c0.2-2.9,1.6-4.5,4.5-4.5c11.7-0.2,23.3-0.2,35,0c1.4,0,3,0.2,3.3,2.1
		c-1.8,1.7-4.1,1.5-6.3,1.5c-9,0-17.9,0-26.9,0c-5.2,0-5.9,0.8-5.8,5.8c0,4.9,0.7,5.6,6,5.7c8.5,0.1,17,0.1,25.4,0
		c5.5-0.1,5.9-0.6,6.1-6.1c0.1-2.1-0.2-4.2,0.9-6.1c2.5-1.8,2.4,0.6,2.7,1.8c0.5,2.6,0.2,5.3,0.2,8c0,1.5-0.2,3,2.1,2.7
		c12.7-0.5,25.3-0.3,37.9-0.1c3.1-1,1.6-3.5,1.6-5.3c0.2-10.1,0.1-10.1,10.3-10.1c6.1,0,12.2,0,18.2,0c6.1,0.1,6.6,0.6,6.7,6.5
		c0,3.5-0.1,7,0.1,10.6C742.3,239,742.3,239.6,742,240.1z"/>
	<path id="XMLID_808_" class="st15" d="M742,240.1c0-0.3,0-0.6,0-0.9c-1-9.1-0.2-18.2-0.5-27.3c0-0.5,0.3-0.7,0.4-1.1
		c-0.1,0-0.3,0-0.5,0.1c-0.2,0.1-0.2,0.4,0,0.8c0,0,0,0.2,0,0.5c0.1,10.2,0.1,10.2-9.9,10.2c-6.1,0-12.2,0.1-18.3,0
		c-1.4,0-3.3,0.9-4.3-1.1c1.7-2,4-1.7,6.2-1.7c6.1-0.1,12.1,0,18.2,0c2.8,0,5.1-0.4,5.1-4.1c0.1-3.7-1.9-4.7-5.1-4.6
		c-5.6,0.1-11.2,0-16.8,0c-5.3,0.1-5.6,0.4-6,5.7c-0.1,1.3-0.1,2.6-0.8,3.7c-1.6,1.9-2.1,0.2-2.5-0.9c-0.7-2-0.4-4.1-0.4-6.1
		c0-1.5,0.1-3-2.2-2.5c-12.7,0.4-25.3,0.5-37.9-0.1c-1.9-0.4-3.8-0.8-5.7-0.1c-9.6,0.8-19.2,0.3-28.7,0.3c-9.3,0-8.6,1.2-8.7,7.6
		c0,0.6-0.3,1.2-0.5,1.8c-2.1,2.2-2.3-0.1-2.7-1.3c-0.6-2-0.3-4.1-0.3-6.2c0.1-1.5-0.3-2.5-2.1-2.2c-12,0.4-24,0.5-36,0
		c-1.7-0.4-3.3-0.4-5,0c-11.1,0.7-22.3,0.1-33.4,0.4c-2.6,0.6-1.8,2.7-1.8,4.3c0,6,0,12.1-0.1,18.1c0,2.1,0.2,4.2-1.3,5.9
		c0,0.3,0,0.7,0,1c-1-0.2-1-1-1-1.8c0-9.5,0-18.9,0-28.4c0-2,0.6-3,2.7-2.8c1,0.1,1.9,0,2.9,0c64,0,128,0,192,0c0.8,0,1.6,0,2.4,0
		c3.3,0.1,3.3,0.1,3.3,3.6c0,9,0,18,0,26.9C742.9,238.5,743.3,239.7,742,240.1z"/>
	<path id="XMLID_668_" class="st16" d="M528.1,267.1"/>
	<path id="XMLID_637_" class="st16" d="M525.1,267.1"/>
	<path id="XMLID_665_" class="st9" d="M450.2,383.8c3.4-1.1,4-3.6,3.7-6.7c4.7-4.1,10-7.5,15.2-11c1.6-1.1,2.6-1,4,0.5
		c3.5,3.9,5.4,7.6,3.2,13.2c-2.1,5.3-2.7,11.2-3.7,16.8c-0.3,1.6-0.8,2.6-2.5,3c-8,2.2-16.1,4.5-24.5,4.2c-3.2-0.1-6.8-0.1-8.5-3.3
		c-1.7-3.3,0.5-6.1,2.2-8.8c0.7-1.1,1.5-2.1,2.3-3.1c2-2.3,3.8-4.9,7.5-4.2C449.4,384.6,449.8,384,450.2,383.8z"/>
	<path id="XMLID_664_" class="st9" d="M516.8,366.4c-0.1,0.6-0.3,1.5-0.6,2.4c-0.8,2.4-1.9,4.8-2.5,7.3c-1.1,4.8-4.1,7.7-8.6,9.4
		c-2.8,1.1-5.6,3.6-8.3,3.4c-2.7-0.2-4.5-3.8-6.6-6c-2.5-2.7-4.8-5.6-7.4-8.3c-1.4-1.5-1.6-2.9-0.9-4.8c1.5-4.1,2.9-8.1,4.3-12.2
		c0.5-1.5,1.5-2.4,2.9-3c3.5-1.6,6.9-3.3,10.4-5.1c1.4-0.7,2.6-1,3.9,0.4c4.2,4.7,8.4,9.3,12.6,13.9
		C516.4,364.5,516.8,365.2,516.8,366.4z"/>
	<path id="XMLID_663_" class="st9" d="M556,347.9c-3.1-0.8-5.4,0.1-6.7,3.1c-1.1,0.7-1.2,2-1,3c0.6,2.6-0.8,4.1-2.7,5.6
		c-5.5,4.5-11.2,8.6-17,12.5c-1.3,0.9-2,0.8-3.2-0.4c-3.6-4.1-4.9-7.8-3.3-14c1.3-4.9,2.7-10.5,3.7-15.8c0.5-1.6,0.8-2.9,2.7-3.4
		c6-1.6,12.1-3,18.3-3.7c3.2-0.3,6.4-0.2,9.5,0.8c3.6,1.1,4.7,3.4,3.5,7c-0.7,2-1.7,3.8-3.1,5.4l0,0
		C556.6,348.3,556.3,348.3,556,347.9z"/>
	<path id="XMLID_662_" class="st9" d="M528.7,381.6c-2.4,2.4-2.5,5.2-0.9,7.9c1.5,2.7,4,3.5,7,2.8c0.4-0.3,0.7-0.2,0.9,0.2l0,0
		c2.1,4.1,4,8.3,5.3,12.8c0.6,2,0.8,4.1,0.7,6.2c-0.2,3.5-2.2,5.3-5.7,4.8c-2-0.3-4.1-0.9-6-1.7c-8.1-3.4-14.9-8.6-21.6-14.1
		c-1.1-0.9-1.5-1.8-0.7-3.3c1.8-3.7,3.4-7.6,5.1-11.4c0.4-0.9,0.9-1.6,1.8-2.1c3.3-1.9,6.7-3.8,10-5.8c1-0.6,1.8-0.6,2.4,0.4
		C527.6,379.4,528.1,380.5,528.7,381.6z"/>
	<path id="XMLID_661_" class="st9" d="M482.9,332.7c0.3,0.1,0.7,0.1,0.9,0.3c2.3,1.8,6.3,2.8,6.6,5.4c0.4,3.5-1.4,5.3-2.5,7.8
		c-2.5,5.4-5.2,9.1-10.4,11.6c-5.5,2.7-5.4,3-8.6-2c-4.3-6.6-8.2-13.4-10.7-20.9c-0.7-2.3-1.5-4.6-1.4-7c0.1-4.3,2.3-6.4,6.4-5.6
		c3.1,0.6,6.3,1.3,8.8,3.5c0.2,1-0.1,1.9-0.2,2.8c-0.4,2.5,0.7,4.3,2.7,5.6c2.4,1.6,4.5,0.8,6.5-0.9c0.4-0.3,0.8-0.5,1.2-0.6
		C482.4,332.7,482.7,332.7,482.9,332.7z"/>
	<path id="XMLID_660_" class="st9" d="M523.1,315.2c-2.5,4.3-2.4,5.2,0.9,8.8c1.1,3.8,0.2,7.6,0,11.4c0,1.3-1,1.8-2.2,2.2
		c-6.1,2-12,4.3-17.9,6.8c-0.1,0.1-0.3,0.2-0.4,0.2c-2.8-1-5.3-3.1-7.4-5.4c-0.9-1-0.6-2.5,0.1-3.8c3.6-6.6,7.4-13,12.4-18.7
		c1.7-1.9,3.5-3.7,5.7-5.1C519,308.9,521.4,309.8,523.1,315.2z"/>
	<path id="XMLID_659_" class="st17" d="M494.2,409.6c-4.7,1.9-5.6,3.9-3.9,8.8c-1.4,4.2-4.9,6.2-8.6,7.7c-2.3,0.9-3.9,0.1-5.3-2.1
		c-1.3-2.1-1.9-4.5-2.1-6.8c-0.4-4.5-0.2-9,0-13.4c0.1-1.8,0.9-3,2.6-3.5c5.8-1.8,11.4-4.1,17-6.6c0.7-0.3,1.6-0.8,2.3-0.2
		c2.2,1.9,4.3,3.8,6.4,5.8c0.5,0.5,0.2,1.2-0.1,1.8c-0.7,1.3-1.3,2.6-2.1,3.8C498.2,408.4,498.4,407.4,494.2,409.6z"/>
	<path id="XMLID_658_" class="st18" d="M475.6,395.7c1-6.1,2.3-12,4-17.8c0.5-1.8,1.1-1.5,2.1-0.4c3.5,3.9,7.1,7.8,10.6,11.7
		c0.8,0.9,1.5,1.7-0.3,2.4c-4.8,1.8-9.5,3.8-14.2,5.6C476.5,397.6,475.1,397.9,475.6,395.7z"/>
	<path id="XMLID_657_" class="st18" d="M517.8,361.3c-0.3-0.2-0.6-0.3-0.8-0.5c-3.8-4.1-7.6-8.2-11.4-12.3c-0.7-0.8-0.6-1.4,0.3-1.8
		c5.2-2,10.4-4,15.6-6c1-0.4,1.6,0.1,1.4,1.1c-1.2,6.3-2.4,12.5-4.4,18.6C518.5,360.8,518.4,361.2,517.8,361.3z"/>
	<path id="XMLID_655_" class="st19" d="M490.4,350.9c-1,0-1.2-0.6-0.9-1.2c1.1-2.5,2.2-5,3.3-7.4c0.2-0.4,0.7-0.8,1.1-0.9
		c0.7-0.1,5.1,4.2,5.1,4.9c0,0.3-0.2,0.6-0.4,0.7C495.8,348.3,493.1,349.6,490.4,350.9z"/>
	<path id="XMLID_654_" class="st19" d="M481.4,358.6c1.1,0,1.3,0.4,1.2,0.8c-1,3-2,6-3,9c-0.3,0.8-1,0.8-1.5,0.2
		c-1.2-1.5-2.3-3-3.4-4.5c-0.3-0.4-0.5-1-0.1-1.3C476.9,361.3,479.4,359.9,481.4,358.6z"/>
	<path id="XMLID_653_" class="st20" d="M504.1,396.6c-0.5-0.1-4.9-4.1-4.8-4.6c0.1-0.4,0.4-0.9,0.7-1.1c2.6-1.3,5.1-2.6,7.7-3.8
		c1-0.5,1.1,0.5,0.9,0.9c-1.1,2.6-2.4,5.2-3.6,7.8C504.9,396.2,504.8,396.8,504.1,396.6z"/>
	<path id="XMLID_652_" class="st21" d="M523.9,374.2c0.2,0.6-0.2,0.9-0.6,1.1c-0.8,0.6-1.6,1.1-2.4,1.5c-1.7,0.8-3.7,3.1-4.8,2.2
		c-1.1-1,0.4-3.2,0.9-4.9c0.1-0.3,0.4-0.9,0.6-1.1c0.6-1.5,1.3-2.9,2.1-4C520.1,368.6,523.8,373.5,523.9,374.2z"/>
	<path id="XMLID_651_" class="st22" d="M535.7,392.5l-0.5,0l-0.4-0.2c0.2-0.2,0.4-0.5,0.6-0.7C535.5,391.9,535.6,392.2,535.7,392.5z
		"/>
	<path id="XMLID_14_" class="st22" d="M556.9,347.9"/>
	<path id="XMLID_2_" class="st23" d="M741,219c-0.3-3.2,0.4-6.4-0.4-9.5c-0.2-0.6,0-0.9,0.4-1c0.6-0.1,0.9,0.5,0.9,0.9
		c0.1,1,0,1.9,0,2.9c0,9,0,17.9,0,26.9c-0.6-0.2-1.7,0.4-1.4-1.1c0.9-4.3,0.2-8.6,0.4-12.9c0.1-2-0.8-2.4-2.6-2.4
		c-9.3,0.1-18.6,0-27.9,0c-1.6,0-2.3,0.5-2.3,2.2c0.1,4.2,0.1,8.3,0.1,12.5c0,0.6,1.1,1.4-0.4,1.7c-0.9,0.1-1.5-0.3-1.8-1.2
		c-1.9-2.3-1.3-5.2-1.3-7.8c0-3.4-1.2-5-4.7-4.9c-9.4,0.1-18.8,0.1-28.2,0c-3.6,0-4.7,1.7-4.7,5c0,2.6,0.6,5.5-1.3,7.8
		c-0.2,0.9-0.9,1.3-1.8,1.1c-1.5-0.2-0.4-1-0.4-1.7c0.1-4.1,0.1-8.2,0.1-12.3c0-0.7-0.4-1.2-1.1-1.3l0,0c-0.2-1-1-1.1-1.8-1.1
		c-12.3,0-24.6,0.1-36.9,0c-2.1,0-2.8,0.7-2.7,2.8c0.2,4,0.1,8,0.2,12c0,0.6,1.1,1.4-0.4,1.7c-0.9,0.1-1.5-0.3-1.8-1.2
		c-2-2.5-1.3-5.5-1.3-8.4c-0.1-3-1.3-4.4-4.3-4.4c-9,0-18,0-27,0c-3,0-4.3,1.3-4.4,4.4c-0.1,2.8,0.7,5.8-1.3,8.4
		c-1,1.8-2.1,1.8-3.1,0c-1.9-2.3-1.3-5.2-1.3-7.8c0-3.3-1.1-5-4.7-5c-7.8,0.1-15.6,0.1-23.4,0c-3.6,0-4.7,1.7-4.7,5
		c0,2.6,0.6,5.5-1.3,7.8c-0.2,1.2-1.1,1.2-2,1.2c0-9,0-18.1,0-27.1c0-1.1-0.4-2.3,0.3-3.2c0.8-0.9,1.3-0.2,1.7,0.7
		c1.6,1.7,1.3,3.9,1.4,5.9c0,2.8,1.4,4,4.2,4c8.1,0,16.3,0,24.4,0c3.1,0,4.2-1.5,4.2-4.4c0-1.9-0.2-3.9,1.3-5.4
		c1.1-1.8,2.1-1.8,3.1,0c1.5,1.6,1.3,3.6,1.3,5.4c-0.1,3.3,1.6,4.4,4.7,4.4c8.4,0,16.9-0.1,25.3,0c4,0.1,6-1.2,5.7-5.5
		c-0.1-1.6,0-3.2,1.3-4.5c0.2-0.9,0.8-1.3,1.8-1.2c1.5,0.2,0.4,1,0.4,1.6c-0.1,3.2-0.1,6.3-0.1,9.5c0,0.7,0.4,1.1,1.1,1.3
		c1.9-1.7,4.2-1.4,6.4-1.4c8.6-0.1,17.2,0,25.8,0c6.5,0,6.5-0.1,6.7-6.7c0-1.1,0-2.2,0.5-3.3c1.6-1.5,2.5-1.5,4,0.1
		c1.6,1.7,1.3,3.9,1.4,5.9c0.1,2.8,1.5,4,4.2,4c9.7,0,19.5,0,29.2,0c3.1,0,4.2-1.5,4.2-4.4c0-1.9-0.2-3.9,1.3-5.4
		c0.2-0.9,0.8-1.3,1.8-1.2c1.5,0.2,0.5,1,0.4,1.6c-0.1,3.2-0.1,6.3-0.2,9.5c0,0.7,0.3,1.2,1,1.3l0,0c0.3,1.3,1.4,1,2.3,1
		c8.8,0,17.6,0,26.4,0"/>
	<path id="XMLID_648_" class="st24" d="M665.9,238c-0.1-4-0.1-8-0.2-12c0-1.6,0.6-2.3,2.2-2.3c12,0,24.1,0,36.1,0
		c1.6,0,2.3,0.5,2.3,2.2c-0.1,4-0.1,8-0.2,12C692.8,238,679.4,238,665.9,238z"/>
	<path id="XMLID_647_" class="st24" d="M662.9,223.8c0,3.7,0,7.4,0.1,11.1c0.1,2.2-0.8,3.2-3.1,3.2c-11.4,0-22.8,0-34.2,0
		c-2.2,0-3.3-0.8-3.2-3.1c0.1-2.9,0.1-5.8,0-8.7c-0.1-2.3,1-2.6,2.9-2.6C637.9,223.8,650.4,223.8,662.9,223.8L662.9,223.8z"/>
	<path id="XMLID_646_" class="st24" d="M581.2,237.9c0-4,0-8-0.1-12c0-1.7,0.6-2.2,2.3-2.2c11.4,0,22.7,0,34.1,0
		c1.7,0,2.3,0.6,2.2,2.2c-0.1,4-0.1,8-0.2,12C606.7,237.9,594,237.9,581.2,237.9z"/>
	<path id="XMLID_645_" class="st24" d="M542.6,238c-0.1-4-0.1-8-0.2-12c0-1.6,0.6-2.3,2.2-2.3c10.4,0,20.9,0,31.3,0
		c1.6,0,2.3,0.5,2.3,2.2c-0.1,4-0.1,8-0.2,12C566.2,238,554.4,238,542.6,238z"/>
	<path id="XMLID_644_" class="st24" d="M724.6,238.1c-4,0-8,0.1-12,0c-2.9-0.1-3.2-0.4-3.3-3.4c-0.1-2.7,0.1-5.5,0-8.2
		c-0.1-2.1,0.6-2.8,2.7-2.8c5,0.1,10,0,14.9,0c3.5,0,7.1,0,10.6,0c1.7,0,2.7,0.3,2.6,2.4c-0.1,3-0.1,6.1,0,9.1c0,2.1-1,2.9-2.9,2.9
		C732.9,238,728.8,238.1,724.6,238.1z"/>
	<path id="XMLID_643_" class="st24" d="M706.2,209.5c0.1,2.7,0.2,5.4,0.1,8.1c0,3.2-0.1,3.2-3.6,3.2c-9.7,0-19.4,0-29.2,0
		c-1.8,0-3.5-0.1-5.3,0c-2.2,0.2-2.7-0.8-2.6-2.8c0.2-2.9,0.1-5.7,0.2-8.6C679.4,209.5,692.8,209.5,706.2,209.5z"/>
	<path id="XMLID_642_" class="st24" d="M662,209.4c1.8,3.3,0.7,6.9,0.9,10.3c0,0.7-0.6,1.1-1.3,1.1c-1,0-1.9,0-2.9,0
		c-12,0-24,0-36-0.1c0-2.4-0.1-4.8-0.1-7.2c0-4.1,0.1-4.2,4.4-4.2c9.3,0,18.6,0,27.8,0C657.2,209.4,659.6,209.4,662,209.4z"/>
	<path id="XMLID_641_" class="st24" d="M619.5,209.5c0,3,0,6.1,0.2,9.1c0.1,1.7-0.6,2.3-2.2,2.2c-11.4,0-22.7,0-34.1,0
		c-1.6,0-2.3-0.5-2.3-2.2c0.1-3,0.1-6.1,0.2-9.1C594,209.5,606.7,209.5,619.5,209.5z"/>
	<path id="XMLID_640_" class="st24" d="M578.1,209.5c0.1,3,0.1,6.1,0.2,9.1c0.1,1.7-0.7,2.2-2.3,2.2c-10.4,0-20.9,0-31.3,0
		c-1.7,0-2.3-0.6-2.2-2.3c0.1-3,0.1-6.1,0.2-9.1C554.4,209.5,566.2,209.5,578.1,209.5z"/>
	<path id="XMLID_639_" class="st24" d="M709.3,220.8c0-2.7,0-5.4-0.1-8.1c-0.1-2.2,0.7-3.3,3-3.3c8.3,0,16.6,0,24.9,0
		c1.9,0,2.8,0.8,3,2.8c0.7,8.6,0.7,8.6-7.8,8.6C724.6,220.8,716.9,220.8,709.3,220.8L709.3,220.8z"/>
	<path id="XMLID_638_" class="st22" d="M481.9,333.9c-0.1-0.7,0.2-1.1,1-1.2C482.8,333.3,482.5,333.7,481.9,333.9z"/>
	<polygon id="XMLID_666_" class="st25" points="687.5,287.1 688.1,287.2 690.6,285.5 698.1,276.6 700.8,273.2 702,271.9 
		702.5,270.8 702.9,269.8 705,268 701.1,268 697.9,268 691,268 563.4,268 518.6,268 514.9,268 514.8,269.8 514.8,271.5 514.7,284 
		514.8,289.4 514.9,291.5 515.6,292.5 516.7,293 517,293 518.4,292.8 519.8,292.4 522.4,291.8 531.4,288.4 546.5,283.5 557.3,280.4 
		566.3,279.3 573.7,279.3 584.2,280.7 595.3,283.8 602.7,286.4 605,287.5 607.8,288.9 617.6,295.1 622.2,298.6 622.9,299.6 
		625.3,301.6 627.6,302.8 635.8,298.7 642.3,295.5 652.3,291.8 658.6,290.2 665.8,288.3 671,287.3 672.8,287.1 676.9,287 680,287.1 
		682.9,286.9 685.3,287 	"/>
	<path id="XMLID_318_" class="st2" d="M702,267.5"/>
	<polyline id="XMLID_667_" class="st25" points="711.5,267 717.5,287.3 719.9,295.5 750.3,267 	"/>
	<path id="XMLID_672_" class="st26" d="M738.3,267"/>
	<path id="XMLID_669_" class="st26" d="M726.7,289.4"/>
	<path id="XMLID_673_" class="st26" d="M727.1,267"/>
	<path id="XMLID_670_" class="st26" d="M717.9,289.4"/>
	<path id="XMLID_938_" class="st25" d="M796.1,230.7c-2.5,4.5-6.2,8.1-9.3,12.1c-12.7,16-25.6,32-38.4,48
		c-12,15-24.1,29.9-36.1,44.9c-0.4,0.5-0.9,1.2-1.4,1.2c-1.1,0-0.7-1.2-0.9-1.8c-1.6-7-3.1-14-4.6-21c-0.2-0.8-0.2-1.6-0.4-2.4
		c-0.6-2.2-1-2.4-2.6-0.6c-5.9,6.5-11.8,13.1-17.6,19.7c-6.3,7.1-12.5,14.2-18.7,21.3c-12.2,13.8-24.4,27.6-36.7,41.4
		c-8.6,9.7-17.3,19.3-25.9,29.1c-11.6,13.1-23.1,26.2-34.7,39.2c-6.3,7.1-12.6,14.1-18.9,21.1c-2.8,3.1-5.6,6.2-8.3,9.3
		c-1.3,1.5-2.1,1.1-2.6-0.5c-1.5-4.2-2.8-8.5-4.4-12.6c-1-2.5-1.2-2.5-3.3-0.8c-11.2,9.6-22.4,19.2-33.6,28.7
		c-12.3,10.5-24.7,20.9-36.9,31.4c-6.4,4.7-11.2,8.9-14.3,11.3c-1,0.3-12,10.9-0.5-2c7.4-9.5,15-18.4,22.4-27.9
		c17-21.7,33.9-43.4,50.9-65.1c10.6-13.5,21.2-27,31.8-40.4c1.6-2,1.9-2,3,0.4c2.2,4.8,4.4,9.6,6.6,14.4c0.8,1.7,1.5,1.8,2.7,0.5
		c4.1-4.5,8.3-9,12.4-13.5c4.2-4.6,8.3-9.4,12.5-14c12.2-13.4,24.5-26.7,36.8-40.1c12.8-14,25.5-28,38.2-42
		c13.6-14.9,27.2-29.9,40.9-44.8c1.7-1.9,2.8-4.3,5.3-5.5c2.2,2,1.9,4.9,2.7,7.3c2.2,7,3.9,14.1,5.9,21.2c0.7,2.6,1,2.7,2.9,0.9
		c8.3-7.9,16.5-15.8,24.7-23.6c15.6-14.8,31.1-29.7,46.7-44.5c0.8-0.8,10.9-9.9,11.7-10.6C805,220.6,797,229.4,796.1,230.7z"/>
	<line id="XMLID_11_" class="st27" x1="536" y1="312" x2="536" y2="312"/>
	<ellipse id="XMLID_15_" class="st1" cx="525" cy="320.6" rx="6.9" ry="7.1"/>
	<ellipse id="XMLID_16_" class="st1" cx="496" cy="414.6" rx="6.9" ry="7.1"/>
	<ellipse id="XMLID_17_" class="st1" cx="449" cy="378.6" rx="6.9" ry="7.1"/>
	<ellipse id="XMLID_18_" class="st1" cx="478" cy="328.6" rx="6.9" ry="7.1"/>
</g>
<g id="Layer_2" class="st0">
	<path id="XMLID_6_" class="st2" d="M615.2,174.2l0.7-70.5c0-0.4,0.3-0.7,0.7-0.7h15.7c0.4,0,0.7,0.3,0.7,0.7v60
		c0,0.2-0.1,0.4-0.3,0.6l-16.5,10.5C615.8,175,615.2,174.7,615.2,174.2z"/>
	<path id="XMLID_5_" class="st28" d="M618.7,108v61.8c0,0.5,0.5,0.9,0.9,0.6l10.2-6.5c0.2-0.1,0.3-0.4,0.3-0.6V108
		c0-0.4-0.3-0.7-0.6-0.7h-10.2C618.9,107.3,618.7,107.6,618.7,108z"/>
	<path id="XMLID_4_" class="st2" d="M691,176.7l13.3-7.3c0.4-0.2,0.7-0.7,0.7-1.2v-49.9c0-0.7-0.6-1.3-1.3-1.3h-13.3
		c-0.7,0-1.3,0.6-1.3,1.3v57.2C689,176.5,690.1,177.2,691,176.7z"/>
	<path id="XMLID_9_" class="st2" d="M539.1,190.9l20.7-12.6c0.1-0.1,0.2-0.2,0.2-0.3v-61.6c0-0.2-0.2-0.4-0.4-0.4h-17.3
		c-0.2,0-0.4,0.2-0.4,0.4l-3.5,74.2C538.5,190.8,538.8,191,539.1,190.9z"/>
	<polygon id="XMLID_10_" class="st28" points="544.5,119.6 556.8,119.5 556.5,177.4 542.3,186.8 	"/>
	<path id="XMLID_8_" class="st28" d="M703,168v-48.5c0-0.3-0.2-0.5-0.5-0.5h-11c-0.3,0-0.5,0.2-0.5,0.5V175"/>
	<ellipse id="XMLID_12_" class="st1" cx="553" cy="354.6" rx="6.9" ry="7.1"/>
	<ellipse id="XMLID_13_" class="st1" cx="534" cy="386.6" rx="6.9" ry="7.1"/>
</g>
<g id="Layer_1_copy">
	<g id="XMLID_115_">
		<path id="XMLID_102_" d="M640.6,160.4c6.9-4,13.9-7.8,20.9-11.7c2.4-1.3,2.5-1.3,2.5,1.8c0,7.9,0,15.7,0,23.6c0,4.3,0,8.7,0,13
			c0,3,0.8,3.4,3.4,2c5.2-2.9,10.2-6,15.4-8.9c1.2-0.7,22.4-13.3,23.9-14c1.1-0.5,2-1.6,3.4-1.6c1.2-0.4,16-9.3,16.1-8.4
			c-0.5,2.1-16.9,12.7-18.5,13.7c-13.4,7.9-26.8,15.9-40.3,23.6c-4.9,2.8-6.5,1.9-6.6-4c-0.2-10.4,0-20.9-0.1-31.3
			c0-4.6-0.2-4.7-4.1-2.5c-20.4,11.5-41,22.6-61.4,34.3c-8.7,5-9.7,4.3-9.7-5.8c0-4.8,0.1-9.6,0-14.4c-0.1-4.4-0.7-4.7-4.3-2.4
			c-8.4,5.4-16.8,10.7-25.1,16.1c-12.1,7.9-24.3,15.6-36.4,23.4c-3.9,2.5-5.3,5.6-4.4,11.2c1.9,11.7,2.2,23.6,0.2,35.2
			c-1.3,7.7,0.1,9.4,5,9.4c23.8-0.1,47.5-0.1,71.3-0.1c51.2,0,102.4-0.1,153.6,0.1c6.3,0,10.3-2.4,15-7.8
			c8.5-9.9,17.9-18.9,28.3-26.7c5.2-3.9,8.2-7.1,8-12.8c-0.3-6.2-0.1-12.5-0.1-18.8c0-1.8,0.2-3.6-0.9-5.1c-1.7-1.8-3.9-1.3-5.9-1.3
			c-16.5,0-33,0-49.4,0c-7.8,0-8.3-0.5-8.4-8.5c0-8.3,0.1-16.6-0.1-24.9c-0.1-0.4-0.2-0.8-0.5-1.1c-0.5-0.2-1-0.3-1.5-0.2
			c-0.4,0.1-0.7,0.2-1.1,0.2c-0.8-0.2-23.9,12.5-23.7,11.4c0.6-0.5,22.5-12.7,26-14.8c0.8-0.2,1.8-0.3,2.1-0.2
			c2,1.1,1.5,21,1.5,30.1c0,1.6-0.3,3.2,0.4,4.7c1.4,1.6,3.3,0.8,5,0.8c18.1,0.1,36.3,0,54.4,0c1.1,0,2.3,0.1,3.4,0
			c1.5-0.1,1.9,0.6,1.9,2c-0.1,2.4,0,4.8,0,7.2c0,6.4,0,12.8,0,19.3c0,0.8,0,1.8,0.7,2.4c0.8,0.7,1.8-0.3,2.5-1
			c6.1-5.7,12.1-11.5,18.3-17.1c1.1-1,2-3.7,3.8-2c1.7,1.5-1,2.6-1.7,3.8c-0.9,1.5-2.2,2.7-3.2,4.2c-0.4,0.6-0.5,1.5,0,2.2
			c0.5,0.7,1.4,0.6,1.7,0.2c1.3-1.2,2.2-0.5,3.3,0.3c4.3,3.3,8.7,6.5,13.1,9.8c3.2,2.4,2.2,1.7-1.5,8c-5.1,8.8-10.5,17.4-16.6,25.6
			c-2.8,3.7-5,7.8-7.7,11.5c-1.3,1.9-1.7,3.8-1.1,5.9c1.9,6.7,3.8,13.4,5.6,20.2c0.5,1.7,1.2,2.7,3.2,3c4.2,0.7,8.4,1.7,12.6,2.5
			c9.5,1.8,19,3.6,28.5,5.4c3.1,0.6,6.3,1,9.4,1.6c2.2,0.5,4.5,1,4.1,4.2c-0.2,1.6,0.9,2.1,2.4,2.4c6.7,1.4,6.5,1.4,7.3,8
			c1,8,2.2,16.1,3.7,24c0.5,2.7-0.8,3.7-2.7,4.8c-12.6,7.3-25.1,14.7-37.8,21.9c-2.6,1.5-3.9,3-3.8,6.3c0.3,8,0.2,16-0.8,24
			c-0.3,2.4,0.6,3.8,2.6,5.1c10,6.9,19.9,14.1,29.8,21c2.2,1.5,4.4,2.8,2.5,6.1c-0.7,1.2,0.4,2.1,1.3,2.8c2.5,1.8,4.9,3.5,7.4,5.3
			c1.1,0.8,1.7,1.5,1.3,3.1c-3.2,11.8-6.3,23.6-9.2,35.4c-0.5,2.3-1.4,2.8-3.5,2.8c-12.2-0.1-24.4,0.2-36.6-0.2
			c-4.1-0.1-8.3-0.5-12.4-0.7c-1.9-0.1-3,0.6-3.9,2.1c-6.2,9.3-12.4,18.7-18.8,27.9c-1.4,2-0.3,3.3,0.4,4.7
			c5.7,11.4,11.4,22.7,17.1,34.1c0.9,1.8,2.4,3.3,0.8,5.6c-0.7,1,0.4,2.1,0.9,3.1c1.9,4,3.8,8.1,5.9,12c0.8,1.5,0.6,2.1-0.8,3.4
			c-6.1,6.2-13,11.9-20.3,17.5c-3.2,2.5-5.1,0.5-8-0.5c-5.7-2-11.9-5-17.8-7.6c-4.8-2.1-9-3.9-14.1-6.2c-6.7-3-10.3-5.5-15.7-3.8
			c-8.3,2.5-16.8,4.8-25.2,7.1c-3.7,1-3.9,1.5-4.1,5.6c0,0.8-0.1,2.1,0,2.9c0.2,16.4-1.3,32.7-1.4,49.1c0,1.4-0.3,2.9-0.5,4.3
			c-0.4,3.9-0.4,3.9-4.5,3.9c-10.4-0.1-20.8-0.4-31.3-0.4c-2.3,0-3.5-0.8-4.6-2.6c-7.6-11.8-15.4-23.6-22.9-35.5
			c-1.6-2.4-3.2-3.7-6.2-3.5c-3.4,0.2-6.7-0.1-10.1,0c-7.7,0.3-15.4-0.7-23-1c-3.2-0.1-5.2,0.7-6.9,3.7
			c-9.6,16.8-19.5,33.4-29.2,50.1c-2.8,4.9-3.2,4.8-8.7,3c-8-2.7-16.1-5.2-24.2-7.4c-2.4-0.7-2.9-1.7-3-3.9
			c-0.7-14.9-1.4-29.9-2.7-44.8c-0.2-1.8-0.2-4.8-0.2-6.6c0-3.3-2.3-4.4-5.5-6.7c-6.9-5-13.8-9.7-20-14.6c-3.8-3-5.5-3.9-8.6-2.4
			c-18.7,9.1-37.5,18-56.1,27.2c-3.7,1.8-5.4,0.2-9.8-2.3c-5.5-3.2-10.4-6.1-14.6-9c-3.5-2.4-4.3-2.6-2.5-4.2
			c3.2-2.9,6.4-5.9,9.5-8.9c0.8-0.8,2.5-1.4,1.3-3.1c-1.1-1.6-3.4-1.8-5-1.1c-2,0.9-3.7,2.3-6.1,3.9c-4.6,3.1-8.3,6.1-12.6,10
			c-1.8,1.6-4.7,4.6-5.5,5.4c-0.6,0.6-0.8,0.6-1.4,0.2c-0.6-0.5-0.4-0.7,0-1.3c0.8-1,1.5-2.1,2.3-3.1c20-25.1,40-50.2,60-75.3
			c3.6-4.5,3.5-4.8-1.8-6.7c-10.3-3.7-21-5.1-32-5.5c-15.9-0.6-31.6,1-47.3,3.6c-9.1,1.5-18.2,3.6-27.2,5.7
			c-1.7,0.4-3.5,0.6-5.2,0.6c-11.4-0.1-22.8,0.1-34.2-0.4c-7.9-0.3-15.7-0.3-23.6-0.6c-3.5-0.1-7-0.7-10.5-1c0.5-2.5,2.5-2,4.1-2.1
			c3.3-0.2,6.6,0,9.9-0.1c17.1,0,34.3,0,51.4,0c4.7,0,9.3-0.5,13.9-1.6c21.4-4.9,43.1-8.5,65.2-8.1c12.4,0.2,24.6,1.7,36.4,5.9
			c3.8,1.3,6.2,0.7,8.7-2.5c4.5-5.7,8.6-11.6,13.7-16.7c1.5-1.2,2.5-2.8,3.5-4.4c9.3-12.7,19.6-24.7,29.3-37.1
			c1.7-2.2,4.6-5.6,6.3-7.7c2-2.4,3.8-4.9,7.3-6.2c3.3-1.2,5-5.6,7.4-8.6c2.1-2.6,4-5.4,6.3-7.9c1.9-2.1,3.5-1.8,4.9,0.5
			c2,3.3,3.2,7,4.8,10.5c2.1,4.5,2.3,4.5,5.6,0.9c17.3-18.5,34.2-37.3,51.2-56.1c2.3-2.5,4.6-5,7.3-6.9c3.3-1.7,3.9-5.7,6.7-7.8
			c9.1-11.1,19.3-21.3,28.8-32c5.5-6.2,11.2-12.2,16.7-18.5c2-2.3,4.1-4.5,6.6-6.2c2.2-1,2.4-3.4,3.6-5.1c0.3-0.3,0.6-0.5,1-0.7
			c0.5-0.3,1-0.7,1.3-1.2c0.2-0.4,0.5-0.7,0.8-1c3.6-4,6.9-8.2,10.7-12c1.2-1.1,2-2.4,2.3-4.4c-2-0.5-3.5-0.4-5.2-0.4
			c-58.8,0-117.6,0-176.4,0c-1,0-2.1,0-3.1,0.1c-1.1,0-1.9,0.1-3,0.4c-1.7,1.3-1.3,3.2-1.3,4.9c-0.1,5.6,0.1,11.2-0.1,16.7
			c-0.1,1.7,0.5,4-2.2,4.5c-0.1-9-0.1-18-0.1-27c0-18.8,0.1-37.6-0.1-56.3c0-2.9,0.9-4.6,3.4-6.1c7.5-4.6,14.8-9.5,22.3-14.2
			c1.8-1.1,23.8-15.6,24.7-16c1-0.4,1.9-1.2,2.9-1.8c7.3-4.7,14.5-9.4,21.8-14c2.3-1.5,2.5-1.4,2.5,1.4c0,8,0,16.1,0,24.1
			c0,3.4,0.5,3.7,3.6,2c6.7-3.7,13.4-7.5,20.2-11.1c1.8-0.9,2.1-2.1,2.1-3.9"/>
		<path id="XMLID_101_" d="M278.5,503.2c1.6,0.3,1.6-1.7,2.8-2c1.9-0.1,4,0.8,3.7,2.5c-0.3,1.9-2.6,0.8-4,0.6
			c-0.8,0-1.7-0.1-2.5-0.1C278.5,503.8,278.5,503.5,278.5,503.2z"/>
		<path id="XMLID_100_" class="st29" d="M281,504.2c0.9,0,1.8-0.1,2.7-0.1c0.4,0,0.9,0,1-0.5c0-0.1-0.5-0.4-0.7-0.4
			c-1.7,0.3-1.5-1.8-2.7-2c4.5-7,9.7-13.5,14.7-20.2c41-55.1,82-110.1,122.9-165.2c1.9-2.5,3.5-4,7.1-3.1c3,0.8,6.4,0.4,9.6,0.5
			c0.7,1.9,0.3,3.3-1.7,4.2c-8.2-2.4-10.3-1.6-15.4,5.2c-20.1,26.7-40,53.5-59.9,80.3c-23.5,31.7-47.3,63.2-70.6,95.1
			c-0.7,1-2.3,2-1.7,3.1c0.5,1.1,2.3,0.8,3.6,0.8c2.6,0.1,5.1-0.1,7.7,0.1c1.6,0.1,3.7-0.5,4.3,2c-4.1,0-8.1,0.1-12.2,0.1
			c-0.9,0-1.9-0.3-2.4,0.8C285.1,505.1,283,505.3,281,504.2z"/>
		<path id="XMLID_99_" class="st30" d="M730.4,151.8"/>
		<path id="XMLID_98_" class="st31" d="M433.5,317.2c1.8-0.7,1-2.8,2.1-3.9c1.6-0.6,2.5-2,3.4-3.2c1.9-2.6,3.9-5.1,5.8-7.7
			c0.8-1.2,1.8-1.6,3.2-1.4c10.4,1.6,20.7-0.1,31-0.8c9.4-0.6,18.7-2.3,27.9-4.2c1.7-0.4,3.4-0.6,4.8-1.9c1.7-0.7,0.9-2.2,0.9-3.3
			c0.1-7.3,0-14.6,0.1-21.9c0-1-0.6-2.3,1.1-2.7c0.3,0.4,0.6,0.9,0.8,1.3c0.9-0.4,0.4,1.1,0.4,1.7c0.5,5.7-0.2,11.4,0,17.1
			c0.1,1.7-0.4,3.5,0.6,5.1c0.3,0.2,0.7,0.4,1.1,0.5c1,0.1,2-0.2,3-0.5c1.2-0.3,2.5-0.5,3.6-1.1c2.7-1.1,5.4-2,8.1-2.9
			c1-0.3,2.1-0.7,3.1-1c0.8-0.3,1.7-0.6,2.5-0.9c2.6-0.9,5-2,7.6-2.9c2.2-0.8,4.5-1.2,6.7-2c3-1,6.1-1.5,9.2-2.2
			c0.5-0.1,1-0.1,1.5-0.1c0.8,0,1.5,0,2.3,0c2.9,0,5.7,0,8.6,0c0.8,0,1.5,0,2.3,0c1.3,0,2.5,0,3.8,0.1c2.2,0.3,4.3,0.8,6.4,1.2
			c1.3,0.4,2.7,0.7,4,1c0.9,0.2,1.7,0.5,2.6,0.7c2.1,0.6,4.2,1.2,6.2,2.1c1,0.5,2,0.8,3,1.2c0.6,0.2,1.2,0.5,1.7,0.8
			c3,1.5,6.1,3,8.9,4.9c1.1,0.7,2.2,1.3,3.2,2c0.5,0.3,1.1,0.7,1.6,1c3.2,2.2,6.2,4.7,9,7.4c1.1,0.8,2.2,0.7,3.3,0.3
			c0.8-0.3,1.5-0.7,2.2-1.1c3.1-1.5,6.1-3,9.1-4.6c0.8-0.4,1.5-0.7,2.3-1.1c1-0.4,2-0.7,3-1.2c2.7-1.2,5.4-2,8.2-2.9
			c1.1-0.3,2.2-0.7,3.3-1c1.3-0.3,2.7-0.4,4-0.9c2.9-1.1,6.1-1.2,9.1-2c0.5-0.1,1-0.2,1.5-0.2c0.7-0.1,1.5-0.1,2.2-0.1
			c3.4-0.1,6.9,0.2,10.3-0.3c0.5-0.1,1-0.2,1.5-0.3c0.8,0,1.5,0.1,2.1,0.5c0.4,0.4,0.5,0.8,0.2,1.3c-0.9,0.3-1.1,1-1,1.8
			c0,2.2-1.3,3.4-3.3,3.8c-0.4-2.3-2-2.4-4-2.3c-15.2,1.3-29.6,5.4-43.2,12.3c-3,1.5-4.1,3.7-4.1,6.9c0.1,10.4,0,20.8,0,31.3
			c0,2.9,0,5.8-0.5,8.6c-0.9,1.6-3,2.3-3.3,4.7c-0.2,1.3-1.7,3-3.7,3.1c4.1-14.9,1.2-30.2,2-45.3c0.1-2-0.4-3.7-2-5.2
			c-15.1-14.4-32.8-23.1-53.7-23.9c-9.5-0.4-18.8,1.8-27.7,5.3c-19.9,8.1-40.6,12.9-62,15.2c-9.2,1-18.5,1.7-27.8,1.2
			c-4.2-0.2-7.1,1.1-9.8,4.6c-20.3,26.9-40.6,53.8-60.9,80.7c-20.4,27-40.9,54-61.2,81.1c-1,1.3-4,2.8-0.8,4.9
			c3.8,1.1,7.6,0.3,11.4,0.5c1.7,0.1,3.5-0.1,5.2,0.7c0.6,0.3,0.8,0.8,0.6,1.4c-2.3,2.5-5.4,1.3-8.1,1.5c-2.7,0.2-5.4,0-8.1,0
			c-1.6,0-3.2,0-4.8-0.2c-2-0.1-4.5,0.5-5.5-1.9c-1-2.3,1-3.9,2.1-5.5c2.8-3.9,5.7-7.7,8.6-11.6c21-27.5,41.7-55.3,62.7-82.9
			c14.2-18.6,28.1-37.4,42.3-56C429.2,320.3,430.2,317.4,433.5,317.2z"/>
		<path id="XMLID_97_" class="st32" d="M552.2,487.8c-1.8,5.6-3.2,11.4-3.7,17.3c-0.4,4.4,0.6,8.5,4,11.8
			c9.9,9.3,21.5,15.5,34.2,19.9c11.3,4,23.1,6.1,35.1,7.1c6.4,0.5,12.8,0.9,19.2,0.6c21.6-1,42.4-5.3,62-14.6
			c2.6-1.2,5.1-2.7,7.5-4.3c7-4.5,10.2-11.1,10.4-19.4c0.1-6.7-1.6-13-4.3-19c-4.7-10.8-11-20.6-18.2-29.8
			c-8.3-10.6-17.2-20.7-26.9-30.1c-0.7-0.7-1.4-1.3-2.1-2c-1-1.1-1.9-1.2-3.2-0.2c-2.7,2-5.4,4-8.4,5.6c-6.5,3.6-13.6,5.2-20.9,6.3
			c-12.1,1.7-23.9,0.1-35.7-2.1c-1.8-0.3-2.3-0.9-1-2.4c1.2-1.3,2.2-2.7,3.4-4c8.9-9.9,17.9-19.7,26.7-29.6c1.7-2,3.5-2.8,6.2-2.5
			c4.3,0.6,8.6,0.5,12.6-1.9c7.8-4.7,11.3-12.9,8.8-21.7c-0.6-2-0.8-3.5,0.8-5.2c9.3-10.2,18.5-20.4,27.8-30.6
			c0.4-0.5,0.9-1,1.3-1.4c1.8-1.8,2.2-1.7,2.9,0.9c1.1,3.7,2.3,7.3,2.9,11.1c1.2,7.1,2.4,14.2,2.2,21.4c-0.3,10.6-2,20.6-7.8,29.7
			c-0.9,1.3-1.1,2.4-0.1,3.9c15.7,24.2,35.4,44.1,61.7,56.9c6.6,3.2,6.6,3.2,12.1-1.4c16.4-13.6,27.6-30.7,31.9-51.6
			c2.1-10.1,2.9-20.5,1.7-31c-1.1-8.9-2.5-17.7-5.2-26.2c-5.6-17.8-14-34-27.9-46.9c-2.7-2.5-5.6-4.7-9-6.3
			c-1.4-0.7-1.3-1.4-0.4-2.5c8.5-10.4,17-20.8,25.5-31.3c9.2-11.3,18.3-22.6,27.5-33.9c4-5,8.3-9.8,12.2-14.8
			c1.4-1.8,2.4-1.5,3.8-0.4c2.1,1.7,5.5,2.9,6.2,5c0.7,2.3-2.3,4.6-3.8,6.8c-7.3,11.3-14.6,22.5-22,33.8c-1.2,1.8-1.6,3.4-0.8,5.8
			c2.8,8.8,5.4,17.7,7.7,26.6c0.5,1.9,1.4,2.8,3.1,3.1c8.8,1.7,17.5,3.3,26.3,4.9c10.5,2,21,3.9,31.5,5.8c1.4,0.2,1.8,0.8,2,2.1
			c1.2,8,2.4,16.1,3.7,24.1c0.4,2.2-0.4,3.4-2.4,4.6c-12,6.8-23.8,13.8-35.8,20.5c-3.1,1.7-4.3,3.6-4.2,7.1c0.3,9.9-1,19.8-1,29.8
			c0,2.8,1,4.3,3.1,5.8c12.6,8.8,25.1,17.7,37.7,26.5c2.1,1.4,2.8,2.7,2,5.5c-2.5,8.6-4.3,17.3-6.5,25.9c-1.3,5.2-1.4,5.2-6.6,5.2
			c-14-0.1-27.9-0.1-41.9-0.3c-3.1,0-5.2,0.7-7.1,3.5c-5.9,9.1-12,18.1-18.3,27c-1.8,2.6-1.8,4.6-0.4,7.4
			c8.1,15.8,16,31.7,23.9,47.6c1.6,3.2,1.6,3.2-1,5.4c-5.2,4.5-10.5,8.9-15.7,13.4c-1.6,1.4-3,1.7-5.1,0.7
			c-13.1-5.9-26.3-11.5-39.5-17.4c-2.2-1-4.3-1.3-6.5-0.6c-10,2.8-19.9,5.7-29.8,8.6c-3.5,1-3.5,1.1-3.6,4.9
			c-0.1,5.1,0,10.3-0.2,15.4c-0.4,11.9-1.1,23.7-1,35.6c0,0.8-0.1,1.6-0.2,2.4c-0.6,3.4-0.6,3.5-4.2,3.5c-8.2,0-16.4-0.2-24.6,0.1
			c-3.5,0.1-5.5-1-7.4-3.9c-6.8-10.6-14-21-20.9-31.6c-1.6-2.4-3.2-3.4-6.1-3.5c-11.8-0.6-23.7-0.6-35.6-0.9
			c-3.1-0.1-4.7,0.7-6.4,3.6c-9.2,16.1-18.8,32-28.2,48c-2,3.5-2,3.5-5.9,2.4c-7.1-2-14.1-4.1-21.1-6.1c-2-0.6-3.2-1.2-3.4-3.7
			c-0.2-2.7-0.6-5.4-0.6-8.1c-0.4-13-2.1-25.8-2.2-38.8c0-3.4-1.4-5.9-4.4-7.8c-8.3-5.6-16.6-11.4-24.7-17.4c-2.4-1.8-4.4-2.2-7-0.7
			c-1.9,1.1-4,1.9-6,2.9c-16,7.7-32,15.3-48,23c-2.4,1.1-4.4,1.4-6.7-0.1c-4.6-3-9.2-5.7-14-8.4c-1.9-1.1-1.6-1.9-0.2-3.1
			c4.8-4,9.5-8.1,14.3-12.1c9.2-7.7,18.4-15.4,27.6-23.1c9.4-7.9,18.9-15.8,28.3-23.8c1.7-1.4,3.4-3,5.1-4.4
			c1.1-0.9,1.8-0.6,2.4,0.8c1.9,4.6,3.9,9.1,5.8,13.7c0.7,1.7,1.3,1.9,2.6,0.5c5.1-5.7,10.3-11.4,15.5-17.1
			c3.8-4.1,7.6-8.3,11.4-12.4C552.1,486.5,552.5,486.8,552.2,487.8z"/>
		<path id="XMLID_96_" class="st33" d="M321,477.6c-3.1-1.2-3.2-1.2-1.2-3.8c14.8-19.6,29.6-39.2,44.3-58.8
			c26.9-35.6,53.8-71.1,80.6-106.8c2.2-3,4.4-4.2,8.3-4.1c31.5,0.7,61.8-4.6,91.2-16.2c26.5-10.4,50.9-5.3,73.6,10.8
			c3.8,2.7,6.6,6.5,10.8,8.7c0.9,0.5,0.6,1.4,0.6,2.1c0,14.3,0,28.6,0.1,42.8c0,2.7-2.5,3.6-3.2,5.7c-6.5,6.2-12.2,13.1-18.3,19.7
			c-13.9,15.1-27.6,30.3-41.4,45.5c-0.5,0.6-1.1,1.2-1.6,1.8c-0.9,0.9-1.5,0.7-2.1-0.5c-1.7-3.8-3.4-7.6-5.2-11.4
			c-2.9-6.5-2.9-6.5-7.3-1c-3.5,4.4-6.9,8.8-10.4,13.2c-0.7,0.9-1.2,2.8-3.2,1.1c-0.9-0.8-1.4,0.8-1.9,1.5
			c-6.5,8.1-13,16.2-19.5,24.4c-6.3,8-13,15.8-19,24.1c-1.6,1.6-3.3,0.8-4.9,0.2c-10.6-4.2-21.7-5-33-5.3
			c-22.9-0.7-45.3,3.2-67.5,8.2c-2.1,0.5-4.1,0.6-6.2,0.6c-12.7,0-25.4,0.1-38,0c-2.5,0-5.2,0.6-7.3-1.5l0,0
			c-4.4-0.9-8.9-0.1-13.3-0.4C324.4,478.1,322.6,478.7,321,477.6z"/>
		<path id="XMLID_95_" class="st34" d="M711.2,165.1c6.4-3.1,18.3-10.5,18.3-10.5c0.9-0.4,2.5-0.8,2.5-0.8
			c0.8,2.7,0.9,21.6,0.7,30.7c-0.1,3.3,1.1,4,4.1,4c18.6-0.1,37.2-0.1,55.8,0c1.8,0,2.3,0.1,5.1,0.1c0,9.3-0.1,20,0,29.3
			c0,2.3-0.7,3.7-2.4,5.3c-13.3,12.3-26.5,24.7-39.6,37.2c-2.1,2.1-4.2,2.9-7.2,2.9c-29.7-0.1-59.4-0.1-89.1-0.1
			c-46.7,0-93.5,0-140.2,0c-6.5,0-5.5,0.7-5.6-5.7c0-15.3,0.1-30.5-0.1-45.8c0-2.8,0.9-4.3,3.2-5.8c17.4-11.1,34.8-22.3,52.1-33.5
			c4.8-3.1,9.6-6.3,14.5-9.4c3.1-2,3.4-1.8,3.4,1.7c0,8.2,0,16.4,0,24.6c0,1.8,0.4,2.3,2.1,1.4c7.3-4.1,14.6-8,21.8-12.1
			c13.1-7.3,26.3-14.7,39.4-22c3.2-1.8,6.4-3.6,9.6-5.4c1.6-0.9,2.2-0.6,2.2,1.3c-0.1,11.4,0,22.8,0,34.2c0,1.6-0.1,3.2,0,4.8
			c0.1,2,0.4,2.2,2.2,1.1c9.4-5.5,18.8-10.9,28.1-16.5C698.6,172.7,705.2,169.4,711.2,165.1z"/>
		<path id="XMLID_94_" class="st35" d="M636,541.7c-22.3-0.4-43-3.8-62.3-13.6c-6.6-3.4-12.6-7.6-18.3-12.3c-3.6-3-4.3-6.5-2.9-10.7
			c4.4-13.3,10.9-25.6,17.7-37.8c0.7-1.3,1.8-2.2,3-3.1c5.2-4.3,10.2-8.8,14.9-13.6c2.2-2.3,4.1-2.8,7.1-1.9
			c10,2.8,20.3,4.4,30.8,4.5c15.2,0.1,29.7-2.7,42-12.4c2-1.5,2.8-0.2,3.9,1c10.5,10.8,20.5,22.1,29.3,34.4
			c5.6,7.8,10.7,16,14.8,24.7c3.2,6.7,1.7,12.5-2.5,17.9c-2.5,3.3-5.9,5.3-9.5,7.2c-14.1,7.3-29.1,11.6-44.7,13.9
			C651.5,540.9,643.3,541.4,636,541.7z"/>
		<path id="XMLID_93_" class="st35" d="M752.5,305.7c6.3-1.9,11,2.4,15.6,7.1c2.7,2.8,4.7,6.1,6.7,9.4c9.9,16.3,15.7,33.9,17.5,52.9
			c1.9,19.7-1.4,38.3-11.2,55.6c-5.8,10.2-13.6,18.6-22.7,25.9c-2,1.6-3.6,1.9-6,0.8c-10.6-4.9-20.2-11.2-29.1-18.7
			c-9.6-8.1-18-17.3-25.7-27.3c-1.8-2.3-2-4.2-0.8-7c4.8-11.3,6.4-23.1,5-35.3c-0.2-2.1,0-4.3-0.6-6.2c-1.2-4-0.1-6.9,2.6-10
			c12-14.4,23.9-29,35.6-43.6c2.1-2.7,4.2-4.1,7.6-3.6C748.4,305.9,749.9,305.7,752.5,305.7z"/>
		<path id="XMLID_92_" class="st36" d="M433.5,317.2c-6.1,6.8-11.2,14.3-16.7,21.6c-15.4,20.2-30.6,40.6-45.9,60.9
			c-14.5,19.3-29.1,38.6-43.6,57.8c-4.5,6-9.1,11.9-13.7,17.9c-0.7,0.9-1.9,1.6-1.2,2.9c0.6,1.2,2,0.7,3.1,0.8
			c1.8,0.1,3.5,0.1,5.3,0.1c1.5,0.8,3.2,0.4,4.7,0.4c12.3-0.1,24.7-0.4,37,0.1c17,0.8,33.4-1.9,50-5.2c22.1-4.3,44.4-6,66.8-1.7
			c3.6,0.7,7.2,1.5,10.6,3.1c1.4,0.7,4.1,1.2,2.3,3.9c-5.5,5.6-9.8,12.2-14.9,18.2c-0.6,0.7-1.2,1.5-1.7,2.3c-1.3,2-2.7,1.9-4.9,1
			c-8.1-3.5-16.7-5.1-25.5-6.1c-7.7-0.9-15.4-0.9-23-0.7c-14.2,0.4-28.3,2.4-42.3,5.2c-6.2,1.2-12.4,2.9-18.7,4.1
			c-2,0.4-4.2,0.4-6.2,0.4c-17.7-0.1-35.3-0.2-53-0.3c-2.4-1.3-5-0.5-7.5-0.8c-1-0.1-1.9-0.1-2.9-0.1c-2.6,0-5.1-0.1-7.5-1.1
			c0.8-2.4,2.6-4.2,4.1-6.1c11.3-15.3,22.6-30.6,34-45.9c16.4-22.1,32.9-44.1,49.4-66.2c16.3-21.8,32.5-43.6,48.7-65.5
			c1.8-2.4,3.5-3.4,6.4-3.1c2.1,0.2,4.2,0,6.3,0.1C433.8,315.4,433.6,316.4,433.5,317.2z"/>
		<path id="XMLID_91_" class="st36" d="M718.9,624.6c-0.1,4.2-0.1,8.3-0.2,12.5c-0.1,3.4-0.3,3.6-3.5,3.7
			c-9.9,0.4-19.8-1.3-29.7-0.7c-2.2,0.1-2.6-1.6-3.4-2.8c-5.1-7.7-10.1-15.5-15.2-23.2c-2.2-3.3-4.7-6.5-6.4-10.1
			c-2-4-5-5.3-9.1-5.3c-7.5,0-15.1-0.2-22.6-0.2c-4.5,0-8.9-1-13.4-0.9c-2.4,0.1-3.7,0.8-4.9,2.9c-10.2,17.7-20.5,35.3-30.8,53
			c-0.8,1.3-1.3,2.3-3.3,1.6c-7.9-2.5-15.8-4.9-23.7-7.1c-2.4-0.7-3.6-1.6-3.4-4.2c0-5.1-0.4-8.9-0.8-15.3c0.3-0.5,0.6-0.5,1-0.1
			c10.3,3.1,20.7,6.1,31,9.2c1.8,0.5,2.1-0.7,2.8-1.8c3.2-5.5,6.5-11,9.7-16.5c6.7-11.4,13.5-22.8,20.1-34.2
			c1.3-2.3,2.9-2.9,5.4-2.9c11.2,0.1,22.4,1.4,33.6,0.9c2.3-0.1,3.4,1.2,4.5,2.9c7,10.6,14.1,21.2,21.2,31.8
			c0.9,1.3,1.9,2.5,2.8,3.8c11.3,1,22.7,0.2,34.1,0.5c1.1,0,2.3-0.1,3.4,0C719.2,622.4,719.2,622.4,718.9,624.6z"/>
		<path id="XMLID_90_" class="st36" d="M719,593.1c-0.5-3.5,0.8-17.3,1.4-25.9c0.1-2.2,0.2-4.1,0.2-5.3c0-1.1,0.6-1.6,1.7-1.9
			c9.8-2.7,19.6-5.5,29.3-8.4c1.7-0.5,2.8,0.2,4.1,0.7c13.9,6,27.8,12,41.6,18.1c2.2,1,3.4,0.5,5-0.9c5-4.5,10.2-8.8,15.2-13.3
			c1.7-1.6,2.3-0.7,3.1,0.8c1.4,3,2.8,6.1,4.4,9c1.1,1.9,0.9,3.2-0.8,4.6c-3.5,3-6.9,6.3-10.5,9.1c-2.3,1.8-4.3,3.9-6.5,5.7
			c-1.5,1.2-2.8,1.4-4.8,0.5c-11.3-5.2-22.7-10.2-34-15.3c-3.6-1.6-7.2-4.1-11-4.4c-3.6-0.3-7.3,1.8-11,2.8
			c-8.6,2.4-17.8,5.1-26.4,7.5C719.7,577.2,719.2,593.7,719,593.1z"/>
		<path id="XMLID_89_" class="st36" d="M545.5,589.8c-4.6-4.5-10.2-7.6-15.2-11.5c-5-3.9-10.4-7.4-15.5-11.2c-1.2-0.9-2.1-1-3.4-0.3
			c-2.6,1.3-5.2,2.4-7.8,3.7c-14.5,7-29,14.1-43.5,21.1c-3.4,1.7-7,3.2-10.5,4.7c-3.2-1.9-6.3-3.7-9.5-5.6c-3.1-1.9-6.2-3.9-9.3-5.9
			c-1-0.6-1.2-1.3-0.2-2.3c2.8-2.6,5.6-5.3,8.3-8.1c1.3-1.3,2.4-1.1,3.8-0.2c3.1,2,6.3,3.8,9.4,5.7c1.9,1.2,3.6,1.4,5.8,0.3
			c13.6-6.6,27.3-13.1,41-19.6c5-2.4,10.1-4.7,15.1-7.2c1.6-0.8,2.9-0.7,4.3,0.4c8.3,6,16.6,11.9,24.8,17.9c1,0.7,2.3,1.1,2.2,2.8
			c0.6,6.2,2.8,27.3,1.7,31.8C546.8,606.7,545.7,590.2,545.5,589.8z"/>
		<path id="XMLID_88_" class="st35" d="M632,349.7c-1.3-0.4-1-1.5-1-2.4c-0.1-13.3-0.1-26.6-0.2-39.9c0-1.7,0.1-3,1.9-4
			c15.8-8.4,32.4-13.8,50.4-14c0.3,0,0.6,0,1,0c2.2-0.1,1.4,0.9,0.7,1.9c-0.4,0.5-0.7,1-1.1,1.6c-9.4,10.2-18.9,20.4-28.3,30.7
			C647.6,332.3,639.5,340.7,632,349.7z"/>
		<path id="XMLID_87_" class="st36" d="M850.6,476.4c-2.5,0-8.6-0.2-14.5-0.6c-4.2-0.3-8.3-1.1-11.3-0.3c-4.4,1.3-4.6,3.6-5.5,4.9
			c-5.2,8.2-10.8,16.2-16.3,24.2c-1.4,2-1.5,2-2.7-0.2c-4.4-7.9-4.4-7.9,0.6-15.2c4.8-7.1,9.8-14.2,14.5-21.4c1.4-2.1,2.7-3.1,5.3-3
			c10.9,0.2,21.8,0,32.7,0.3c4,0.1,7.9,0.6,11.9,0.6c5.3,0,4.2-0.3,5.4-4.3c2.3-7.8,4-15.7,6-23.5c0.7-2.9,0.8-3,3.1-1.3
			c1.8,1.3,4.3,2.3,5.1,4.1c0.6,1.5-0.8,3.9-1.3,5.9c-2.3,8.9-4.6,17.8-6.8,26.7c-0.8,3.1-0.8,3.2-4.1,3.2c-7.4,0-14.8,0-22.1,0
			C850.6,476.5,850.6,476.5,850.6,476.4z"/>
		<path id="XMLID_86_" class="st36" d="M698.9,465.8c-2.2-2.5-3.2-4.2-6.7-8.2c-2.1-2.3-4.4-4.6-6.3-7c-4.3-5.2-9.9-8.9-14.5-13.8
			c-1.1-1.2-1.9-1.2-3.2-0.1c-8.8,7.8-19.4,11-30.9,12.6c-15,2.1-29.5-1-43.9-4.2c-0.6-0.1-1.2-0.5-1.8-0.8c-1-0.4-1.2-1-0.6-1.8
			c0.6-0.9,1.3-1.8,2-2.7c1.6-2.2,3.2-3.2,6.4-2.3c12,3.4,24.3,3.8,36.6,2.8c10.7-0.9,20.9-4.1,29.6-10.8c1.4-1.1,2.2-1.2,3.5,0.1
			c7.4,7.5,15.3,14.6,21.8,23c3.2,3.6,5.2,6,9.4,11.4c3.4,4.4,6.9,13.8,11.1,19.7C715.9,490,699.2,465.8,698.9,465.8z"/>
		<path id="XMLID_85_" class="st36" d="M835.4,391.9c1.5-9.8,0.8-18.9,1-28.1c0.1-2.3,0.7-3.8,2.8-5c7.8-4.3,15.5-8.9,23.2-13.4
			c5.1-3,10.2-6,15.3-9c1.2-0.7,1.9-1.2,1.7-2.9c-1-6.4-1.8-12.9-2.7-19.4c-0.1-0.9-1.6-2.3,0.2-2.7c1.4-0.4,3.3-0.6,4,1.5
			c0.2,0.6,0.5,1.2,0.6,1.8c1.3,8.5,2.5,17,3.8,25.4c0.2,1.6-0.6,2.3-1.8,3c-5.8,3.3-11.6,6.7-17.4,10.1
			c-7.3,4.3-14.5,8.7-21.9,12.8c-2.3,1.3-3.1,2.8-3.1,5.4c0.1,5.9-0.2,11.9-0.1,17.8c0,2.3-0.8,4.4-0.8,6.6c-0.1,1.5-1,1.2-2,0.7
			C836.2,395.4,834.8,393.9,835.4,391.9z"/>
		<path id="XMLID_84_" class="st37" d="M492.1,479.9c0.6-1.6-0.6-1.9-1.6-2.3c-4.7-2.1-9.7-3.3-14.7-4.1c-8.4-1.4-16.8-2.4-25.3-1.9
			c-11.1,0.6-22.3,1.3-33.3,3.3c-9.6,1.7-19.1,3.4-28.6,5.8c-1.4,0.3-2.9,0.3-4.3,0.3c-12.7-0.1-25.3,0.2-38-0.3
			c-7.8-0.3-15.7-0.5-23.5-0.8c-0.8,0-1.6-0.1-2.2-0.7c4.9,0,9.9,0,14.8-0.1c1.1,0,2.3,0.4,2.8-1.1c4.5-0.4,9,0,13.4,0.1
			c8.7,0.1,17.3-0.2,26,0.3c8.7,0.5,16.8-2,25.1-3.6c20.2-4.1,40.5-6.6,61.1-5.3c9.6,0.6,19.1,2.2,28.1,5.8c1,0.4,2,1.1,3.2,0.7
			C494,477.1,493.8,479.1,492.1,479.9z"/>
		<path id="XMLID_83_" class="st38" d="M536.6,495.1c0.3,2.1-0.2,2.9-0.9,3.6c-3.6,3.9-7.1,7.7-10.6,11.7c-1.5,1.7-1.9,0.6-2.5-0.7
			c-1.8-4.4-3.6-8.8-5.6-13.1c-0.6-1.4-0.2-2,0.8-2.8c3.9-3.3,7.7-6.6,11.6-9.9c2.1-1.7,2.5-1.6,3.5,1c1.1,3,2.3,5.9,3.4,8.9
			C536.6,494.6,536.7,495.4,536.6,495.1z"/>
		<path id="XMLID_82_" class="st36" d="M808.4,268c0.1,0.3,2.6,15.6,3.8,19.5c-0.1-0.3-3.8-12.3-3.8-12.6c-0.4-0.6-2.6-8.4-3.1-9.5
			c-1.3-2.6-0.5-4.9,1-7.1c7.5-11.3,14.9-22.6,22.3-33.9c1-1.6,2-3.2,3-4.9c0.8-1.4,1.8-1.5,3.1-0.6c1.3,0.9,2.5,1.8,1.4,3.5
			c-1.2,2-2.6,4-3.9,6c-7.9,11.9-15.3,24.2-23.6,35.9C807.5,265.5,807.8,266.7,808.4,268z"/>
		<path id="XMLID_81_" class="st38" d="M701.8,316.7c0.7-0.2,0.6,0.5,0.8,0.8c1.3,1.9,1,4.3,1.5,6.4c1.5,5.6,2.3,11.4,3.6,17.1
			c0.2,1,0.4,1.8-0.3,2.6c-1.9,2.5-3.8,5-5.9,7.5c-0.8,1-1.6,0.7-1.9-0.7c-1.9-7.5-3.8-15-5.7-22.5c-0.3-1.1-0.4-2.2,0.5-3.2
			c2.3-2.6,5.1-4.9,7-7.9C701.4,316.9,701.6,316.8,701.8,316.7z"/>
		<path id="XMLID_80_" class="st36" d="M694.9,401.5c-0.4,0.9-0.5,2.6-1.9,2c-1.2-0.5-1.6-4.3-1.4-4.7c0.8-1.5,2.7-5.7,3.9-10.3
			c2-7.2,3-15.9,3.3-15.7c0.1,0.4,0.6,7.6-0.5,15C697.5,393.3,695.5,400,694.9,401.5z"/>
		<path id="XMLID_79_" class="st36" d="M581,453c1.4-2.3,3.6-4,5.4-5.9c0.4-0.5,1-1,1.6-0.6c0.9,0.6-0.1,1.1-0.4,1.4
			c-2.2,2.1-4,4.5-6.6,6.1c-0.3-0.2-0.4-0.4-0.3-0.7C580.8,453.1,580.9,453,581,453z"/>
		<path id="XMLID_78_" class="st36" d="M557.9,482.9c0.3-0.5,0.7-0.5,1,0c-0.5,1.7-1.9,3-1.9,4.8c-0.3,0.4-0.6,0.4-0.9,0"/>
		<path id="XMLID_77_" class="st36" d="M560.9,475.3c0.1-1.1,1-1.6,1.7-2.2c0.2-0.2,0.6-0.4,0.8-0.3c0.5,0.3,0.4,0.9,0.1,1.2
			c-0.6,0.7-0.5,1.9-1.5,2.3C561.3,476.3,561.2,475.6,560.9,475.3z"/>
		<path id="XMLID_76_" class="st36" d="M558,482c0.9-1.2,0.5-3,1.8-4c0.6,0.1,0.7,0.7,1,1.1c-0.6,1-0.7,2.3-1.8,2.9
			C558.6,482.4,558.3,482.3,558,482z"/>
		<path id="XMLID_75_" class="st39" d="M464.5,519.5c-0.1-1.5,0.5-2.4,1.9-2.9l0,0C466.5,518.1,465.9,519.1,464.5,519.5z"/>
		<path id="XMLID_74_" class="st36" d="M560.8,479.1c-0.6-0.1-0.9-0.5-1-1.1c0-0.8,0.1-1.6,1-1.9c0.6,0.1,0.6,0.7,0.9,1
			C561.4,477.8,561.1,478.4,560.8,479.1z"/>
		<path id="XMLID_73_" class="st36" d="M808.4,268c-1.2-1.3-1.5-2.6,0.2-3.8C808.5,265.5,808.4,266.8,808.4,268z"/>
		<path id="XMLID_72_" class="st36" d="M581,453c0,0.3,0,0.7,0,1c-0.1,0.3-0.2,0.6-0.4,0.8c-0.4,0.3-0.6,1.3-1.3,0.5
			c-0.2-0.2,0-0.9,0.3-1.2C580,453.7,580.6,453.4,581,453z"/>
		<path id="XMLID_71_" class="st36" d="M555.2,489c-0.4-0.6,0.1-1.1,0.7-1.3c0.3,0,0.6,0,0.9,0"/>
		<path id="XMLID_70_" class="st36" d="M561.7,477.1c-0.6-0.1-0.8-0.5-0.9-1c0-0.3,0-0.6,0.1-0.8c0.6,0.1,0.9,0.5,1,1
			C561.9,476.6,561.8,476.8,561.7,477.1z"/>
		<path id="XMLID_69_" class="st36" d="M558,482c0.3,0,0.6,0,1,0c0,0.3,0,0.6-0.1,0.9c-0.3,0-0.7,0-1,0
			C557.9,482.6,557.9,482.3,558,482z"/>
		<path id="XMLID_68_" class="st39" d="M463.5,520.5c0.1-0.6,0.4-0.9,1-1C464.4,520.1,464.1,520.4,463.5,520.5L463.5,520.5z"/>
		<path id="XMLID_67_" class="st39" d="M466.4,516.6c0.1-0.2,0.3-0.5,0.4-0.7C467.5,516.6,466.7,516.5,466.4,516.6L466.4,516.6z"/>
		<path id="XMLID_66_" class="st31" d="M688.9,287.3c0.2-0.5,0.5-0.8,1.1-0.9C689.8,287,689.5,287.3,688.9,287.3z"/>
		<path id="XMLID_65_" class="st40" d="M549.3,628.4c-0.3,0-0.6,0-1,0.1c0-0.3,0-0.7-0.1-1"/>
		<path id="XMLID_64_" class="st37" d="M319.9,477.1c6.2,0.1,12.3-0.2,18.4,1c-5.4,0-10.8,0.1-16.1,0.1
			C321.3,478.1,320.3,478.3,319.9,477.1z"/>
		<path id="XMLID_63_" d="M492.3,420.9c-1.9,2-3.4,4.4-5.7,5.9c-6.7,4.7-12.5,2.4-14.3-5.6c-1.1-4.7-1-9.5-0.9-14.4
			c0-0.6,0.1-1.3,0.1-1.9c0.2-2.7,0.2-2.7-2.3-2.1c-5.6,1.5-11.2,2.8-16.9,3.5c-4.2,0.5-8.3,0.6-12.4-0.6c-5.4-1.6-7.3-5.4-5.5-10.8
			c1.3-3.7,3.7-6.7,6.2-9.6c1.2-1.3,2.4-2.6,1.4-4.6c2.8,0.3,5.1,1.8,7.8,2.4c1,2.4-1.2,2.2-2.3,2.6c-4.1,1.8-6.6,5-8.5,8.8
			c-2.1,4.5-0.7,7,4.3,7.7c4,0.5,8-0.2,12-0.5c11.5-0.7,18.6-5.4,18.7-17.9c0-2.5,0.8-5.1,1.7-7.5c1.3-3.8-0.9-6.3-3.3-8.4
			c-2.5-2.2-4.4,0.5-6.4,1.5c-4.3,2.1-7.2,6.5-12.1,7.5c-1.2-0.9-2.7-1.6-1.8-3.5c1.1,0.3,1.8-0.3,2.6-0.9c4.2-3,8.4-5.9,12.6-8.8
			c2.4-1.7,2.5-1.7,0.7-4.4c-3.5-5.4-6.8-10.8-9.5-16.7c-2-4.2-3.6-8.6-4.2-13.2c-1-7.5,3.2-11.3,10.5-9.8c1.7,0.4,3.4,0.8,5.1,1.5
			c2.6,1,5,2.5,8.1,2.3c2.3-0.2,4.2,1.5,5.1,3.8c1.6,4,5.7,5.4,8.7,8c0.8,0.7,1.4,0,1.8-0.8c1.1-2,2.2-3.9,3.3-5.9
			c3.2-5.4,6.7-10.6,11-15.1c1.9-2,3.9-3.8,6.4-5c4.2-2.1,7.6-1.7,10,2.3c1.4,2.3,1.3,2.8,2.2,4c0.3,0.4,0.2,1-0.3,1.2
			c-0.9,0.3-0.9-0.9-2.7-0.5c-4.8-4.8-6.5-4.9-11.8,0.1c-5.8,5.4-9.6,12.3-13.6,19c-0.9,1.6-1.6,3.4,0.1,4.8
			c2.3,1.8,3.9,5.5,8.2,2.6c3.7-2.5,7.9-4.2,12.3-4.7c3.8-0.4,4.2-2.8,4.4-5.4c0.2-2.7-0.7-5.5,1-7.9c1.9-0.5,2.7,0.5,3.3,2.1
			c-0.1,2.6-0.2,5.1-0.4,7.7c-0.2,1.9,0.8,2.2,2.3,1.7c5.6-1.6,11.2-2.7,17-3.3c3.2-0.3,6.4-0.3,9.6,0.4c6.6,1.5,8.9,5.9,6.3,12.2
			c-0.8,2-2,3.9-4.1,6.1c-2.4,0.5-2-0.9-1.2-3c-0.1-1.2,0.5-2.1,0.9-3.2c2.1-5.3,1.1-7.6-4.4-8.5c-8.3-1.3-16.1,1.4-24,3.6
			c-1.7,0.5-2.1,2.3-2.5,3.8c-1.2,6-2.7,11.9-4.4,17.7c-1.2,4,1.4,6.3,3.8,8.7c1.1,1.1,2.4,0.4,3.5-0.3c5.3-3.6,10.5-7.2,15.4-11.4
			c1.4-1.2,3.1-2.6,4.6-3.6c1.8-1.1,2.3-1.2,4.8-0.5c1,2.8-4.3,1.5-3.4,4.4c-2.3,1.1-1.7,1.3-2.8,2.3c-5.3,4.6-10.9,8.7-16.8,12.5
			c-3,1.9-2.9,2-1.1,5c0.2,0.4,0.4,0.8,0.7,1.3c-0.1,1.3-0.6,2.3-2.1,2.3c-2.5-2.9-4.8-2.5-8.2-0.8c-6.4,3.2-8.9,8.8-11.2,14.9
			c-0.7,1.9-0.3,3.5,1.2,4.7c6.8,5.7,13.9,10.9,22.5,13.5c5.7,1.7,7.8-0.3,7-6.2c-0.4-3-1.6-5.8-2.7-8.7c-0.8-2.2-2.2-4.3-1.9-6.8
			c0.5-0.9,1.2-1.4,2.3-1.4c2.9,4.7,4.9,9.7,6.1,15c0.8,3.8,1.4,7.8-1.7,10.9c-3.4,3.3-7.5,2.1-11.3,0.9c-5.2-1.7-9.9-4.5-14.4-7.7
			c-3.3-2.3-6.4-4.8-9.6-7.3c-0.8-0.6-1.7-1.2-2.3,0.1c-1.3,2.9-4.2,5.7-6.3,8.2c-1.6,1.7-1.7,2.5-5.8,6c-1-2.5,8.7-10.6,5.8-11.2
			c4.5-3.7,3.4-6.6-0.5-9.8c-1.7-1.4-3.4-1.5-5.3-0.6c-4.4,2-8.9,3.7-13.4,5.2c-1.9,0.7-3.6,1.7-3.6,4c-0.2,4.8-0.7,9.6,0.4,14.3
			c1.5,5.9,4.3,6.8,9.4,3.4c1.9-1.2,1.4,0.4,5.7-4C494.7,417.8,492.3,419.4,492.3,420.9z"/>
		<path id="XMLID_62_" class="st41" d="M742,240.1c-1.3,0.1-2.5,0.2-3.8,0.2c-64.7,0-129.5,0-194.2,0c-1.1,0-2.2-0.1-3.4-0.2
			c-0.4-0.5-0.4-1,0.1-1.5c0.8-0.9,1.9-1.3,3-1.6c11.1-0.6,22.3-0.6,33.4-0.1c1.7,0.4,3.3,0.4,5,0c12.1-0.7,24.3-0.2,36.4-0.3
			c2.1-0.5,1.5-2.2,1.6-3.5c0.1-2.4,0-4.8,0.1-7.2c0.2-2.9,1.6-4.5,4.5-4.5c11.7-0.2,23.3-0.2,35,0c1.4,0,3,0.2,3.3,2.1
			c-1.8,1.7-4.1,1.5-6.3,1.5c-9,0-17.9,0-26.9,0c-5.2,0-5.9,0.8-5.8,5.8c0,4.9,0.7,5.6,6,5.7c8.5,0.1,17,0.1,25.4,0
			c5.5-0.1,5.9-0.6,6.1-6.1c0.1-2.1-0.2-4.2,0.9-6.1c2.5-1.8,2.4,0.6,2.7,1.8c0.5,2.6,0.2,5.3,0.2,8c0,1.5-0.2,3,2.1,2.7
			c12.7-0.5,25.3-0.3,37.9-0.1c3.1-1,1.6-3.5,1.6-5.3c0.2-10.1,0.1-10.1,10.3-10.1c6.1,0,12.2,0,18.2,0c6.1,0.1,6.6,0.6,6.7,6.5
			c0,3.5-0.1,7,0.1,10.6C742.3,239,742.3,239.6,742,240.1z"/>
		<path id="XMLID_61_" class="st42" d="M742,240.1c0-0.3,0-0.6,0-0.9c-1-9.1-0.2-18.2-0.5-27.3c0-0.5,0.3-0.7,0.4-1.1
			c-0.1,0-0.3,0-0.5,0.1c-0.2,0.1-0.2,0.4,0,0.8c0,0,0,0.2,0,0.5c0.1,10.2,0.1,10.2-9.9,10.2c-6.1,0-12.2,0.1-18.3,0
			c-1.4,0-3.3,0.9-4.3-1.1c1.7-2,4-1.7,6.2-1.7c6.1-0.1,12.1,0,18.2,0c2.8,0,5.1-0.4,5.1-4.1c0.1-3.7-1.9-4.7-5.1-4.6
			c-5.6,0.1-11.2,0-16.8,0c-5.3,0.1-5.6,0.4-6,5.7c-0.1,1.3-0.1,2.6-0.8,3.7c-1.6,1.9-2.1,0.2-2.5-0.9c-0.7-2-0.4-4.1-0.4-6.1
			c0-1.5,0.1-3-2.2-2.5c-12.7,0.4-25.3,0.5-37.9-0.1c-1.9-0.4-3.8-0.8-5.7-0.1c-9.6,0.8-19.2,0.3-28.7,0.3c-9.3,0-8.6,1.2-8.7,7.6
			c0,0.6-0.3,1.2-0.5,1.8c-2.1,2.2-2.3-0.1-2.7-1.3c-0.6-2-0.3-4.1-0.3-6.2c0.1-1.5-0.3-2.5-2.1-2.2c-12,0.4-24,0.5-36,0
			c-1.7-0.4-3.3-0.4-5,0c-11.1,0.7-22.3,0.1-33.4,0.4c-2.6,0.6-1.8,2.7-1.8,4.3c0,6,0,12.1-0.1,18.1c0,2.1,0.2,4.2-1.3,5.9
			c0,0.3,0,0.7,0,1c-1-0.2-1-1-1-1.8c0-9.5,0-18.9,0-28.4c0-2,0.6-3,2.7-2.8c1,0.1,1.9,0,2.9,0c64,0,128,0,192,0c0.8,0,1.6,0,2.4,0
			c3.3,0.1,3.3,0.1,3.3,3.6c0,9,0,18,0,26.9C742.9,238.5,743.3,239.7,742,240.1z"/>
		<path id="XMLID_60_" class="st43" d="M528.1,267.1"/>
		<path id="XMLID_59_" class="st43" d="M525.1,267.1"/>
		<path id="XMLID_58_" class="st35" d="M450.2,383.8c3.4-1.1,4-3.6,3.7-6.7c4.7-4.1,10-7.5,15.2-11c1.6-1.1,2.6-1,4,0.5
			c3.5,3.9,5.4,7.6,3.2,13.2c-2.1,5.3-2.7,11.2-3.7,16.8c-0.3,1.6-0.8,2.6-2.5,3c-8,2.2-16.1,4.5-24.5,4.2c-3.2-0.1-6.8-0.1-8.5-3.3
			c-1.7-3.3,0.5-6.1,2.2-8.8c0.7-1.1,1.5-2.1,2.3-3.1c2-2.3,3.8-4.9,7.5-4.2C449.4,384.6,449.8,384,450.2,383.8z"/>
		<path id="XMLID_57_" class="st35" d="M516.8,366.4c-0.1,0.6-0.3,1.5-0.6,2.4c-0.8,2.4-1.9,4.8-2.5,7.3c-1.1,4.8-4.1,7.7-8.6,9.4
			c-2.8,1.1-5.6,3.6-8.3,3.4c-2.7-0.2-4.5-3.8-6.6-6c-2.5-2.7-4.8-5.6-7.4-8.3c-1.4-1.5-1.6-2.9-0.9-4.8c1.5-4.1,2.9-8.1,4.3-12.2
			c0.5-1.5,1.5-2.4,2.9-3c3.5-1.6,6.9-3.3,10.4-5.1c1.4-0.7,2.6-1,3.9,0.4c4.2,4.7,8.4,9.3,12.6,13.9
			C516.4,364.5,516.8,365.2,516.8,366.4z"/>
		<path id="XMLID_56_" class="st35" d="M556,347.9c-3.1-0.8-5.4,0.1-6.7,3.1c-1.1,0.7-1.2,2-1,3c0.6,2.6-0.8,4.1-2.7,5.6
			c-5.5,4.5-11.2,8.6-17,12.5c-1.3,0.9-2,0.8-3.2-0.4c-3.6-4.1-4.9-7.8-3.3-14c1.3-4.9,2.7-10.5,3.7-15.8c0.5-1.6,0.8-2.9,2.7-3.4
			c6-1.6,12.1-3,18.3-3.7c3.2-0.3,6.4-0.2,9.5,0.8c3.6,1.1,4.7,3.4,3.5,7c-0.7,2-1.7,3.8-3.1,5.4l0,0
			C556.6,348.3,556.3,348.3,556,347.9z"/>
		<path id="XMLID_55_" class="st35" d="M528.7,381.6c-2.4,2.4-2.5,5.2-0.9,7.9c1.5,2.7,4,3.5,7,2.8c0.4-0.3,0.7-0.2,0.9,0.2l0,0
			c2.1,4.1,4,8.3,5.3,12.8c0.6,2,0.8,4.1,0.7,6.2c-0.2,3.5-2.2,5.3-5.7,4.8c-2-0.3-4.1-0.9-6-1.7c-8.1-3.4-14.9-8.6-21.6-14.1
			c-1.1-0.9-1.5-1.8-0.7-3.3c1.8-3.7,3.4-7.6,5.1-11.4c0.4-0.9,0.9-1.6,1.8-2.1c3.3-1.9,6.7-3.8,10-5.8c1-0.6,1.8-0.6,2.4,0.4
			C527.6,379.4,528.1,380.5,528.7,381.6z"/>
		<path id="XMLID_54_" class="st35" d="M482.9,332.7c0.3,0.1,0.7,0.1,0.9,0.3c2.3,1.8,6.3,2.8,6.6,5.4c0.4,3.5-1.4,5.3-2.5,7.8
			c-2.5,5.4-5.2,9.1-10.4,11.6c-5.5,2.7-5.4,3-8.6-2c-4.3-6.6-8.2-13.4-10.7-20.9c-0.7-2.3-1.5-4.6-1.4-7c0.1-4.3,2.3-6.4,6.4-5.6
			c3.1,0.6,6.3,1.3,8.8,3.5c0.2,1-0.1,1.9-0.2,2.8c-0.4,2.5,0.7,4.3,2.7,5.6c2.4,1.6,4.5,0.8,6.5-0.9c0.4-0.3,0.8-0.5,1.2-0.6
			C482.4,332.7,482.7,332.7,482.9,332.7z"/>
		<path id="XMLID_53_" class="st35" d="M523.1,315.2c-2.5,4.3-2.4,5.2,0.9,8.8c1.1,3.8,0.2,7.6,0,11.4c0,1.3-1,1.8-2.2,2.2
			c-6.1,2-12,4.3-17.9,6.8c-0.1,0.1-0.3,0.2-0.4,0.2c-2.8-1-5.3-3.1-7.4-5.4c-0.9-1-0.6-2.5,0.1-3.8c3.6-6.6,7.4-13,12.4-18.7
			c1.7-1.9,3.5-3.7,5.7-5.1C519,308.9,521.4,309.8,523.1,315.2z"/>
		<path id="XMLID_52_" class="st44" d="M494.2,409.6c-4.7,1.9-5.6,3.9-3.9,8.8c-1.4,4.2-4.9,6.2-8.6,7.7c-2.3,0.9-3.9,0.1-5.3-2.1
			c-1.3-2.1-1.9-4.5-2.1-6.8c-0.4-4.5-0.2-9,0-13.4c0.1-1.8,0.9-3,2.6-3.5c5.8-1.8,11.4-4.1,17-6.6c0.7-0.3,1.6-0.8,2.3-0.2
			c2.2,1.9,4.3,3.8,6.4,5.8c0.5,0.5,0.2,1.2-0.1,1.8c-0.7,1.3-1.3,2.6-2.1,3.8C498.2,408.4,498.4,407.4,494.2,409.6z"/>
		<path id="XMLID_51_" class="st45" d="M475.6,395.7c1-6.1,2.3-12,4-17.8c0.5-1.8,1.1-1.5,2.1-0.4c3.5,3.9,7.1,7.8,10.6,11.7
			c0.8,0.9,1.5,1.7-0.3,2.4c-4.8,1.8-9.5,3.8-14.2,5.6C476.5,397.6,475.1,397.9,475.6,395.7z"/>
		<path id="XMLID_50_" class="st45" d="M517.8,361.3c-0.3-0.2-0.6-0.3-0.8-0.5c-3.8-4.1-7.6-8.2-11.4-12.3c-0.7-0.8-0.6-1.4,0.3-1.8
			c5.2-2,10.4-4,15.6-6c1-0.4,1.6,0.1,1.4,1.1c-1.2,6.3-2.4,12.5-4.4,18.6C518.5,360.8,518.4,361.2,517.8,361.3z"/>
		<path id="XMLID_49_" class="st46" d="M490.4,350.9c-1,0-1.2-0.6-0.9-1.2c1.1-2.5,2.2-5,3.3-7.4c0.2-0.4,0.7-0.8,1.1-0.9
			c0.7-0.1,5.1,4.2,5.1,4.9c0,0.3-0.2,0.6-0.4,0.7C495.8,348.3,493.1,349.6,490.4,350.9z"/>
		<path id="XMLID_48_" class="st46" d="M481.4,358.6c1.1,0,1.3,0.4,1.2,0.8c-1,3-2,6-3,9c-0.3,0.8-1,0.8-1.5,0.2
			c-1.2-1.5-2.3-3-3.4-4.5c-0.3-0.4-0.5-1-0.1-1.3C476.9,361.3,479.4,359.9,481.4,358.6z"/>
		<path id="XMLID_47_" class="st47" d="M504.1,396.6c-0.5-0.1-4.9-4.1-4.8-4.6c0.1-0.4,0.4-0.9,0.7-1.1c2.6-1.3,5.1-2.6,7.7-3.8
			c1-0.5,1.1,0.5,0.9,0.9c-1.1,2.6-2.4,5.2-3.6,7.8C504.9,396.2,504.8,396.8,504.1,396.6z"/>
		<path id="XMLID_46_" class="st48" d="M523.9,374.2c0.2,0.6-0.2,0.9-0.6,1.1c-0.8,0.6-1.6,1.1-2.4,1.5c-1.7,0.8-3.7,3.1-4.8,2.2
			c-1.1-1,0.4-3.2,0.9-4.9c0.1-0.3,0.4-0.9,0.6-1.1c0.6-1.5,1.3-2.9,2.1-4C520.1,368.6,523.8,373.5,523.9,374.2z"/>
		<path id="XMLID_45_" class="st49" d="M535.7,392.5l-0.5,0l-0.4-0.2c0.2-0.2,0.4-0.5,0.6-0.7C535.5,391.9,535.6,392.2,535.7,392.5z
			"/>
		<path id="XMLID_44_" class="st49" d="M556.9,347.9"/>
		<path id="XMLID_43_" class="st50" d="M741,219c-0.3-3.2,0.4-6.4-0.4-9.5c-0.2-0.6,0-0.9,0.4-1c0.6-0.1,0.9,0.5,0.9,0.9
			c0.1,1,0,1.9,0,2.9c0,9,0,17.9,0,26.9c-0.6-0.2-1.7,0.4-1.4-1.1c0.9-4.3,0.2-8.6,0.4-12.9c0.1-2-0.8-2.4-2.6-2.4
			c-9.3,0.1-18.6,0-27.9,0c-1.6,0-2.3,0.5-2.3,2.2c0.1,4.2,0.1,8.3,0.1,12.5c0,0.6,1.1,1.4-0.4,1.7c-0.9,0.1-1.5-0.3-1.8-1.2
			c-1.9-2.3-1.3-5.2-1.3-7.8c0-3.4-1.2-5-4.7-4.9c-9.4,0.1-18.8,0.1-28.2,0c-3.6,0-4.7,1.7-4.7,5c0,2.6,0.6,5.5-1.3,7.8
			c-0.2,0.9-0.9,1.3-1.8,1.1c-1.5-0.2-0.4-1-0.4-1.7c0.1-4.1,0.1-8.2,0.1-12.3c0-0.7-0.4-1.2-1.1-1.3l0,0c-0.2-1-1-1.1-1.8-1.1
			c-12.3,0-24.6,0.1-36.9,0c-2.1,0-2.8,0.7-2.7,2.8c0.2,4,0.1,8,0.2,12c0,0.6,1.1,1.4-0.4,1.7c-0.9,0.1-1.5-0.3-1.8-1.2
			c-2-2.5-1.3-5.5-1.3-8.4c-0.1-3-1.3-4.4-4.3-4.4c-9,0-18,0-27,0c-3,0-4.3,1.3-4.4,4.4c-0.1,2.8,0.7,5.8-1.3,8.4
			c-1,1.8-2.1,1.8-3.1,0c-1.9-2.3-1.3-5.2-1.3-7.8c0-3.3-1.1-5-4.7-5c-7.8,0.1-15.6,0.1-23.4,0c-3.6,0-4.7,1.7-4.7,5
			c0,2.6,0.6,5.5-1.3,7.8c-0.2,1.2-1.1,1.2-2,1.2c0-9,0-18.1,0-27.1c0-1.1-0.4-2.3,0.3-3.2c0.8-0.9,1.3-0.2,1.7,0.7
			c1.6,1.7,1.3,3.9,1.4,5.9c0,2.8,1.4,4,4.2,4c8.1,0,16.3,0,24.4,0c3.1,0,4.2-1.5,4.2-4.4c0-1.9-0.2-3.9,1.3-5.4
			c1.1-1.8,2.1-1.8,3.1,0c1.5,1.6,1.3,3.6,1.3,5.4c-0.1,3.3,1.6,4.4,4.7,4.4c8.4,0,16.9-0.1,25.3,0c4,0.1,6-1.2,5.7-5.5
			c-0.1-1.6,0-3.2,1.3-4.5c0.2-0.9,0.8-1.3,1.8-1.2c1.5,0.2,0.4,1,0.4,1.6c-0.1,3.2-0.1,6.3-0.1,9.5c0,0.7,0.4,1.1,1.1,1.3
			c1.9-1.7,4.2-1.4,6.4-1.4c8.6-0.1,17.2,0,25.8,0c6.5,0,6.5-0.1,6.7-6.7c0-1.1,0-2.2,0.5-3.3c1.6-1.5,2.5-1.5,4,0.1
			c1.6,1.7,1.3,3.9,1.4,5.9c0.1,2.8,1.5,4,4.2,4c9.7,0,19.5,0,29.2,0c3.1,0,4.2-1.5,4.2-4.4c0-1.9-0.2-3.9,1.3-5.4
			c0.2-0.9,0.8-1.3,1.8-1.2c1.5,0.2,0.5,1,0.4,1.6c-0.1,3.2-0.1,6.3-0.2,9.5c0,0.7,0.3,1.2,1,1.3l0,0c0.3,1.3,1.4,1,2.3,1
			c8.8,0,17.6,0,26.4,0"/>
		<path id="XMLID_42_" class="st51" d="M665.9,238c-0.1-4-0.1-8-0.2-12c0-1.6,0.6-2.3,2.2-2.3c12,0,24.1,0,36.1,0
			c1.6,0,2.3,0.5,2.3,2.2c-0.1,4-0.1,8-0.2,12C692.8,238,679.4,238,665.9,238z"/>
		<path id="XMLID_41_" class="st51" d="M662.9,223.8c0,3.7,0,7.4,0.1,11.1c0.1,2.2-0.8,3.2-3.1,3.2c-11.4,0-22.8,0-34.2,0
			c-2.2,0-3.3-0.8-3.2-3.1c0.1-2.9,0.1-5.8,0-8.7c-0.1-2.3,1-2.6,2.9-2.6C637.9,223.8,650.4,223.8,662.9,223.8L662.9,223.8z"/>
		<path id="XMLID_40_" class="st51" d="M581.2,237.9c0-4,0-8-0.1-12c0-1.7,0.6-2.2,2.3-2.2c11.4,0,22.7,0,34.1,0
			c1.7,0,2.3,0.6,2.2,2.2c-0.1,4-0.1,8-0.2,12C606.7,237.9,594,237.9,581.2,237.9z"/>
		<path id="XMLID_39_" class="st51" d="M542.6,238c-0.1-4-0.1-8-0.2-12c0-1.6,0.6-2.3,2.2-2.3c10.4,0,20.9,0,31.3,0
			c1.6,0,2.3,0.5,2.3,2.2c-0.1,4-0.1,8-0.2,12C566.2,238,554.4,238,542.6,238z"/>
		<path id="XMLID_38_" class="st51" d="M724.6,238.1c-4,0-8,0.1-12,0c-2.9-0.1-3.2-0.4-3.3-3.4c-0.1-2.7,0.1-5.5,0-8.2
			c-0.1-2.1,0.6-2.8,2.7-2.8c5,0.1,10,0,14.9,0c3.5,0,7.1,0,10.6,0c1.7,0,2.7,0.3,2.6,2.4c-0.1,3-0.1,6.1,0,9.1c0,2.1-1,2.9-2.9,2.9
			C732.9,238,728.8,238.1,724.6,238.1z"/>
		<path id="XMLID_37_" class="st51" d="M706.2,209.5c0.1,2.7,0.2,5.4,0.1,8.1c0,3.2-0.1,3.2-3.6,3.2c-9.7,0-19.4,0-29.2,0
			c-1.8,0-3.5-0.1-5.3,0c-2.2,0.2-2.7-0.8-2.6-2.8c0.2-2.9,0.1-5.7,0.2-8.6C679.4,209.5,692.8,209.5,706.2,209.5z"/>
		<path id="XMLID_36_" class="st51" d="M662,209.4c1.8,3.3,0.7,6.9,0.9,10.3c0,0.7-0.6,1.1-1.3,1.1c-1,0-1.9,0-2.9,0
			c-12,0-24,0-36-0.1c0-2.4-0.1-4.8-0.1-7.2c0-4.1,0.1-4.2,4.4-4.2c9.3,0,18.6,0,27.8,0C657.2,209.4,659.6,209.4,662,209.4z"/>
		<path id="XMLID_35_" class="st51" d="M619.5,209.5c0,3,0,6.1,0.2,9.1c0.1,1.7-0.6,2.3-2.2,2.2c-11.4,0-22.7,0-34.1,0
			c-1.6,0-2.3-0.5-2.3-2.2c0.1-3,0.1-6.1,0.2-9.1C594,209.5,606.7,209.5,619.5,209.5z"/>
		<path id="XMLID_34_" class="st51" d="M578.1,209.5c0.1,3,0.1,6.1,0.2,9.1c0.1,1.7-0.7,2.2-2.3,2.2c-10.4,0-20.9,0-31.3,0
			c-1.7,0-2.3-0.6-2.2-2.3c0.1-3,0.1-6.1,0.2-9.1C554.4,209.5,566.2,209.5,578.1,209.5z"/>
		<path id="XMLID_33_" class="st51" d="M709.3,220.8c0-2.7,0-5.4-0.1-8.1c-0.1-2.2,0.7-3.3,3-3.3c8.3,0,16.6,0,24.9,0
			c1.9,0,2.8,0.8,3,2.8c0.7,8.6,0.7,8.6-7.8,8.6C724.6,220.8,716.9,220.8,709.3,220.8L709.3,220.8z"/>
		<path id="XMLID_32_" class="st49" d="M481.9,333.9c-0.1-0.7,0.2-1.1,1-1.2C482.8,333.3,482.5,333.7,481.9,333.9z"/>
		<polygon id="XMLID_31_" class="st52" points="687.5,287.1 688.1,287.2 690.6,285.5 698.1,276.6 700.8,273.2 702,271.9 
			702.5,270.8 702.9,269.8 705,268 701.1,268 697.9,268 691,268 563.4,268 518.6,268 514.9,268 514.8,269.8 514.8,271.5 514.7,284 
			514.8,289.4 514.9,291.5 515.6,292.5 516.7,293 517,293 518.4,292.8 519.8,292.4 522.4,291.8 531.4,288.4 546.5,283.5 
			557.3,280.4 566.3,279.3 573.7,279.3 584.2,280.7 595.3,283.8 602.7,286.4 605,287.5 607.8,288.9 617.6,295.1 622.2,298.6 
			622.9,299.6 625.3,301.6 627.6,302.8 635.8,298.7 642.3,295.5 652.3,291.8 658.6,290.2 665.8,288.3 671,287.3 672.8,287.1 
			676.9,287 680,287.1 682.9,286.9 685.3,287 		"/>
		<path id="XMLID_30_" d="M702,267.5"/>
		<polyline id="XMLID_29_" class="st52" points="711.5,267 717.5,287.3 719.9,295.5 750.3,267 		"/>
		<path id="XMLID_28_" class="st53" d="M738.3,267"/>
		<path id="XMLID_27_" class="st53" d="M726.7,289.4"/>
		<path id="XMLID_26_" class="st53" d="M727.1,267"/>
		<path id="XMLID_25_" class="st53" d="M717.9,289.4"/>
		<path id="XMLID_24_" class="st52" d="M796.1,230.7c-2.5,4.5-6.2,8.1-9.3,12.1c-12.7,16-25.6,32-38.4,48
			c-12,15-24.1,29.9-36.1,44.9c-0.4,0.5-0.9,1.2-1.4,1.2c-1.1,0-0.7-1.2-0.9-1.8c-1.6-7-3.1-14-4.6-21c-0.2-0.8-0.2-1.6-0.4-2.4
			c-0.6-2.2-1-2.4-2.6-0.6c-5.9,6.5-11.8,13.1-17.6,19.7c-6.3,7.1-12.5,14.2-18.7,21.3c-12.2,13.8-24.4,27.6-36.7,41.4
			c-8.6,9.7-17.3,19.3-25.9,29.1c-11.6,13.1-23.1,26.2-34.7,39.2c-6.3,7.1-12.6,14.1-18.9,21.1c-2.8,3.1-5.6,6.2-8.3,9.3
			c-1.3,1.5-2.1,1.1-2.6-0.5c-1.5-4.2-2.8-8.5-4.4-12.6c-1-2.5-1.2-2.5-3.3-0.8c-11.2,9.6-22.4,19.2-33.6,28.7
			c-12.3,10.5-24.7,20.9-36.9,31.4c-6.4,4.7-11.2,8.9-14.3,11.3c-1,0.3-12,10.9-0.5-2c7.4-9.5,15-18.4,22.4-27.9
			c17-21.7,33.9-43.4,50.9-65.1c10.6-13.5,21.2-27,31.8-40.4c1.6-2,1.9-2,3,0.4c2.2,4.8,4.4,9.6,6.6,14.4c0.8,1.7,1.5,1.8,2.7,0.5
			c4.1-4.5,8.3-9,12.4-13.5c4.2-4.6,8.3-9.4,12.5-14c12.2-13.4,24.5-26.7,36.8-40.1c12.8-14,25.5-28,38.2-42
			c13.6-14.9,27.2-29.9,40.9-44.8c1.7-1.9,2.8-4.3,5.3-5.5c2.2,2,1.9,4.9,2.7,7.3c2.2,7,3.9,14.1,5.9,21.2c0.7,2.6,1,2.7,2.9,0.9
			c8.3-7.9,16.5-15.8,24.7-23.6c15.6-14.8,31.1-29.7,46.7-44.5c0.8-0.8,10.9-9.9,11.7-10.6C805,220.6,797,229.4,796.1,230.7z"/>
		<line id="XMLID_23_" class="st54" x1="536" y1="312" x2="536" y2="312"/>
		<ellipse id="XMLID_22_" class="st55" cx="525" cy="320.6" rx="6.9" ry="7.1"/>
		<ellipse id="XMLID_21_" class="st55" cx="496" cy="414.6" rx="6.9" ry="7.1"/>
		<ellipse id="XMLID_20_" class="st55" cx="449" cy="378.6" rx="6.9" ry="7.1"/>
		<ellipse id="XMLID_19_" class="st55" cx="478" cy="328.6" rx="6.9" ry="7.1"/>
		<path id="XMLID_114_" d="M615.2,174.2l0.7-70.5c0-0.4,0.3-0.7,0.7-0.7h15.7c0.4,0,0.7,0.3,0.7,0.7v60c0,0.2-0.1,0.4-0.3,0.6
			l-16.5,10.5C615.8,175,615.2,174.7,615.2,174.2z"/>
		<path id="XMLID_110_" class="st56" d="M618.7,108v61.8c0,0.5,0.5,0.9,0.9,0.6l10.2-6.5c0.2-0.1,0.3-0.4,0.3-0.6V108
			c0-0.4-0.3-0.7-0.6-0.7h-10.2C618.9,107.3,618.7,107.6,618.7,108z"/>
		<path id="XMLID_109_" d="M691,176.7l13.3-7.3c0.4-0.2,0.7-0.7,0.7-1.2v-49.9c0-0.7-0.6-1.3-1.3-1.3h-13.3c-0.7,0-1.3,0.6-1.3,1.3
			v57.2C689,176.5,690.1,177.2,691,176.7z"/>
		<path id="XMLID_108_" d="M539.1,190.9l20.7-12.6c0.1-0.1,0.2-0.2,0.2-0.3v-61.6c0-0.2-0.2-0.4-0.4-0.4h-17.3
			c-0.2,0-0.4,0.2-0.4,0.4l-3.5,74.2C538.5,190.8,538.8,191,539.1,190.9z"/>
		<polygon id="XMLID_106_" class="st56" points="544.5,119.6 556.8,119.5 556.5,177.4 542.3,186.8 		"/>
		<path id="XMLID_105_" class="st56" d="M703,168v-48.5c0-0.3-0.2-0.5-0.5-0.5h-11c-0.3,0-0.5,0.2-0.5,0.5V175"/>
		<ellipse id="XMLID_104_" class="st55" cx="553" cy="354.6" rx="6.9" ry="7.1"/>
		<ellipse id="XMLID_103_" class="st55" cx="534" cy="386.6" rx="6.9" ry="7.1"/>
	</g>
</g>
</svg>
